<?xml version="1.0" encoding="UTF-8"?>
<svg version="1.1" xmlns="http://www.w3.org/2000/svg" width="1024" height="1024">
<path d="M0 0 C0.97340332 0.1556543 1.94680664 0.31130859 2.94970703 0.47167969 C36.8698953 6.1372954 70.66164212 19.41414637 99 39 C99.59232422 39.40138184 100.18464844 39.80276367 100.79492188 40.21630859 C114.18416486 49.31421993 126.21868761 59.9321792 138 71 C138.65613281 71.61359375 139.31226563 72.2271875 139.98828125 72.859375 C145.14132975 77.83473217 149.53764748 83.40956477 154 89 C154.86499989 90.05151034 155.73090715 91.1022748 156.59765625 92.15234375 C184.24253933 125.99686921 200.97024108 167.11847061 208 210 C208.226875 211.299375 208.45375 212.59875 208.6875 213.9375 C220.79208088 295.97965929 180.94895925 373.51639108 136 439 C135.50306641 439.72461426 135.00613281 440.44922852 134.49414062 441.19580078 C126.74286028 452.42694866 118.32845832 463.19504628 110 474 C109.46665039 474.69222656 108.93330078 475.38445312 108.38378906 476.09765625 C102.63918597 483.53319567 96.71211399 490.78180118 90.609375 497.92578125 C88.23730965 500.70733088 85.92507288 503.53348661 83.625 506.375 C75.46419972 516.38986402 66.91396325 526.07406415 58.1875 535.59765625 C56.3033966 537.66680552 54.45545253 539.75853926 52.625 541.875 C48.09417961 547.08174698 43.38592424 552.12625838 38.68847656 557.18212891 C37.53583082 558.42310637 36.3841811 559.66500952 35.23339844 560.90771484 C22.60825804 574.54108924 22.60825804 574.54108924 16.16015625 580.77734375 C14.32601736 582.66454995 12.62117067 584.58952635 10.90966797 586.5859375 C6.88551073 591.19635143 2.61672079 595.52747916 -1.71484375 599.84765625 C-2.93670128 601.07094887 -2.93670128 601.07094887 -4.1832428 602.31895447 C-5.89559193 604.03198008 -7.60918842 605.74375965 -9.32397461 607.4543457 C-11.93002015 610.05503552 -14.53068522 612.66101956 -17.13085938 615.26757812 C-18.80436699 616.94042486 -20.47818482 618.61296134 -22.15234375 620.28515625 C-22.9202977 621.05513443 -23.68825165 621.82511261 -24.47947693 622.61842346 C-28.64707178 626.76820772 -32.89892925 630.75295964 -37.36573792 634.57981873 C-38.62138304 635.67098012 -39.82371817 636.82371817 -41 638 C-45.02486944 637.7864136 -47.00621575 635.32528573 -49.703125 632.5546875 C-50.60160156 631.64203125 -51.50007812 630.729375 -52.42578125 629.7890625 C-53.36764053 628.8181476 -54.30904436 627.84679068 -55.25 626.875 C-60.7963211 621.19606644 -66.30477719 615.5815621 -72.34228516 610.421875 C-74.33298473 608.71438835 -76.21232771 606.92080492 -78.0625 605.0625 C-78.94615234 604.18271484 -78.94615234 604.18271484 -79.84765625 603.28515625 C-81.59940997 601.42530883 -83.24836238 599.53446575 -84.90234375 597.58984375 C-90.42857406 591.23810013 -96.51672727 585.41588269 -102.5 579.5 C-116.66255222 565.49696164 -116.66255222 565.49696164 -121.6015625 559.6171875 C-123.15460087 557.82121575 -124.80494095 556.1618226 -126.5 554.5 C-129.46715801 551.57869212 -132.20058971 548.52008327 -134.91796875 545.3671875 C-137.560464 542.36277451 -140.27840173 539.43265928 -143 536.5 C-147.41511903 531.73377807 -151.76922398 526.93152568 -156 522 C-156.41685059 521.5148291 -156.83370117 521.0296582 -157.26318359 520.52978516 C-159.78943384 517.58907884 -162.31217446 514.64540512 -164.83203125 511.69921875 C-166.86571395 509.32213047 -168.9045022 506.94963379 -170.94921875 504.58203125 C-182.83406154 490.80714072 -194.35450663 476.78827089 -205.30078125 462.25390625 C-207.07999863 459.89388687 -208.86789397 457.54060004 -210.65625 455.1875 C-232.45346551 426.42535982 -252.27246231 396.49566184 -268.03662109 363.97558594 C-268.99521129 362.00982013 -269.97506216 360.05573471 -270.95703125 358.1015625 C-287.30034137 325.09187213 -297.0581075 287.85666303 -298 251 C-298.03996094 249.86046875 -298.07992188 248.7209375 -298.12109375 247.546875 C-299.19415238 190.23291995 -278.77058579 131.31549044 -241 88 C-240.06703966 86.88706577 -239.13618427 85.77236482 -238.20703125 84.65625 C-228.41563457 72.95656443 -218.06169037 62.39832219 -206 53 C-204.7445289 51.99251485 -203.489339 50.98467923 -202.234375 49.9765625 C-187.07745528 37.94433346 -170.57441671 28.08465364 -153 20 C-151.95271729 19.51370117 -151.95271729 19.51370117 -150.88427734 19.01757812 C-130.96669273 9.88441977 -109.67231019 3.29485726 -88 0 C-87.03674805 -0.14808105 -86.07349609 -0.29616211 -85.08105469 -0.44873047 C-56.96238341 -4.57807692 -28.05857156 -4.56884556 0 0 Z M-164.43066406 123.46582031 C-166.03720127 125.03636789 -167.66881802 126.57726345 -169.3046875 128.1171875 C-199.15379892 156.59558709 -217.95706195 199.08280788 -219.06201172 240.31396484 C-220.05444825 284.57991501 -206.40212163 323.89751563 -181 360 C-180.30849854 360.98685791 -180.30849854 360.98685791 -179.60302734 361.99365234 C-171.83841723 373.0367085 -163.65318445 383.6413635 -155 394 C-154.51257324 394.58652344 -154.02514648 395.17304688 -153.52294922 395.77734375 C-147.99689618 402.41990427 -142.34309172 408.91585397 -136.484375 415.26953125 C-134.49049487 417.46091837 -132.53189098 419.67271059 -130.5859375 421.90625 C-119.92610667 434.11564091 -108.507684 445.59568624 -97.0625 457.0625 C-96.42898621 457.69860199 -95.79547241 458.33470398 -95.14276123 458.99008179 C-86.1113845 468.06027286 -86.1113845 468.06027286 -76.59936523 476.61889648 C-74.27506983 478.6260006 -72.14135185 480.80077378 -70 483 C-66.49865743 486.53864759 -62.93446583 489.90309854 -59.1484375 493.1328125 C-55.48730868 496.31466628 -51.96310414 499.65081108 -48.41796875 502.9609375 C-46.09720151 505.17306698 -46.09720151 505.17306698 -43 506 C-35.47010843 501.21933143 -28.94073506 494.25974108 -22.47949219 488.13842773 C-18.72023112 484.57710286 -14.88420237 481.13074011 -10.97631836 477.73339844 C0.33795716 467.80982139 10.97657824 457.12579101 21.625 446.5 C22.18757507 445.94001312 22.75015015 445.38002625 23.32977295 444.80307007 C28.8937606 439.25929553 34.40618194 433.71214329 39.51025391 427.73486328 C41.8810252 424.97401425 44.38605979 422.34136494 46.875 419.6875 C51.28226211 414.94500684 55.49064391 410.09950345 59.54296875 405.046875 C61.39945546 402.74471342 63.27495624 400.46817659 65.17578125 398.203125 C82.2319269 377.83311751 97.40641071 356.40990676 110 333 C110.61617187 331.87464844 111.23234375 330.74929688 111.8671875 329.58984375 C133.14400855 289.16388375 136.80785515 241.01098162 123.78515625 197.44921875 C115.45362233 171.21544799 100.94416763 148.79744892 82 129 C81.113125 128.06027344 80.22625 127.12054688 79.3125 126.15234375 C48.32485962 94.12877934 3.43741099 76.46430089 -40.74462891 75.71655273 C-86.86937899 75.37668615 -131.17081414 90.7935261 -164.43066406 123.46582031 Z " fill="#016630" transform="translate(556,14)"/>
<path d="M0 0 C10.64132409 -0.07002334 21.28259187 -0.12307368 31.92410088 -0.15543652 C36.86729034 -0.17098203 41.81032027 -0.19201275 46.75341797 -0.22631836 C51.53860123 -0.25931388 56.32363266 -0.27693615 61.10892105 -0.28463173 C62.91943878 -0.29010412 64.72994978 -0.30078605 66.54040146 -0.31719017 C95.01130798 -0.56450685 124.56425579 5.38970527 147 24 C147.91136719 24.73734375 148.82273438 25.4746875 149.76171875 26.234375 C165.02158358 39.25953159 175.20739943 57.6267363 180 77 C180.21269531 77.84046875 180.42539063 78.6809375 180.64453125 79.546875 C186.64197644 107.33359947 181.97753323 135.94947594 167 160 C164.56191903 163.58711716 161.936267 166.81143949 159 170 C158.20207031 170.88945313 157.40414062 171.77890625 156.58203125 172.6953125 C135.08416406 195.49511847 103.45293141 205.18875084 72.73205566 206.1607666 C61.92916567 206.41618788 51.12161519 206.33458851 40.31695557 206.26428223 C36.76789263 206.24500503 33.21888049 206.24111515 29.66977215 206.2375679 C25.42956381 206.23244058 21.18940226 206.21792394 16.94921875 206.203125 C16.14367743 206.20124428 15.3381361 206.19936356 14.50818443 206.19742584 C12.25237892 206.19059765 9.99672454 206.17699453 7.7409668 206.16113281 C5.81863472 206.15089081 5.81863472 206.15089081 3.85746765 206.14044189 C1 206 1 206 0 205 C-0.0978152 202.35714747 -0.12994267 199.74044247 -0.12025452 197.09715271 C-0.12110894 196.25917005 -0.12196337 195.42118739 -0.12284368 194.55781132 C-0.12450106 191.72789141 -0.11897293 188.89802976 -0.11352539 186.06811523 C-0.11324355 184.048289 -0.11340119 182.02846265 -0.1139679 180.00863647 C-0.11425599 174.50679614 -0.10835741 169.00497741 -0.10139394 163.50314212 C-0.0951623 157.76023895 -0.09455675 152.01733535 -0.09336853 146.27442932 C-0.09025465 135.39113107 -0.08204051 124.50784281 -0.07201904 113.62454897 C-0.06085965 101.23782204 -0.05534789 88.85109464 -0.05032361 76.46436393 C-0.03985794 50.97623707 -0.02225741 25.4881191 0 0 Z M40 34 C40 79.21 40 124.42 40 171 C86.36460367 172.0272897 86.36460367 172.0272897 124.6796875 150.41015625 C138.97281007 135.56359628 141.64223673 117.84027219 141.3125 98.07421875 C140.67871034 81.15995708 134.94905327 65.28097141 123 53 C99.31800179 32.27825156 70.01313434 34 40 34 Z " fill="#016630" transform="translate(10,727)"/>
<path d="M0 0 C2.48397284 2.1762568 4.81704535 4.42454779 7.1171875 6.79296875 C7.67792969 7.33308594 8.23867188 7.87320313 8.81640625 8.4296875 C21.32763261 21.4663197 25.29105937 42.00685328 25.3046875 59.35546875 C25.31693359 60.17982422 25.32917969 61.00417969 25.34179688 61.85351562 C25.34373047 62.65982422 25.34566406 63.46613281 25.34765625 64.296875 C25.35176514 65.01689697 25.35587402 65.73691895 25.36010742 66.47875977 C25.1171875 68.79296875 25.1171875 68.79296875 23.1171875 74.79296875 C-11.2028125 74.79296875 -45.5228125 74.79296875 -80.8828125 74.79296875 C-75.62367854 92.825204 -75.62367854 92.825204 -63.0078125 105.29296875 C-61.32327278 106.17340794 -59.61464773 107.00964636 -57.8828125 107.79296875 C-57.14804687 108.13070312 -56.41328125 108.4684375 -55.65625 108.81640625 C-43.63172438 113.32043818 -28.39740136 111.93879881 -16.8828125 106.79296875 C-11.45580354 103.83429311 -6.88139188 100.12490251 -2.48828125 95.796875 C-0.8828125 94.79296875 -0.8828125 94.79296875 1.02636719 95.05517578 C3.38749313 95.88835217 4.45450625 96.79522204 6.17578125 98.59375 C6.72685547 99.15900391 7.27792969 99.72425781 7.84570312 100.30664062 C8.69165039 101.19706055 8.69165039 101.19706055 9.5546875 102.10546875 C13.24442723 105.93957114 16.85985528 109.57012847 21.1171875 112.79296875 C21.00244204 116.57956884 19.71482611 118.53166263 17.1796875 121.16796875 C-1.13031511 138.29189831 -22.6003696 143.91796499 -47.10546875 143.16796875 C-65.77753113 142.18796876 -82.83178505 135.39255077 -95.8828125 121.79296875 C-96.64980469 121.05691406 -97.41679687 120.32085938 -98.20703125 119.5625 C-110.34865086 107.25596875 -117.21231465 88.97447625 -117.8828125 71.79296875 C-117.934375 70.72175781 -117.9859375 69.65054688 -118.0390625 68.546875 C-118.6211885 45.62566392 -112.63148931 24.83924892 -96.8359375 7.65625 C-71.3974981 -16.61202119 -28.65181021 -21.93532896 0 0 Z M-71.640625 28.60546875 C-76.08712708 33.96808432 -79.8828125 41.70695211 -79.8828125 48.79296875 C-57.4428125 48.79296875 -35.0028125 48.79296875 -11.8828125 48.79296875 C-12.87532288 38.86786495 -14.68260943 30.99317182 -21.8828125 23.79296875 C-37.94409082 11.74701001 -58.13399759 14.67863516 -71.640625 28.60546875 Z " fill="#016630" transform="translate(333.8828125,793.20703125)"/>
<path d="M0 0 C14.19593083 12.23505405 21.14744452 29.49023081 23.25 47.8125 C23.40961952 51.35527469 23.43501682 54.89151473 23.4375 58.4375 C23.44974609 59.365625 23.46199219 60.29375 23.47460938 61.25 C23.47654297 62.14976562 23.47847656 63.04953125 23.48046875 63.9765625 C23.48457764 64.78561035 23.48868652 65.5946582 23.49291992 66.42822266 C23.25 68.8125 23.25 68.8125 21.25 73.8125 C-12.74 73.8125 -46.73 73.8125 -81.75 73.8125 C-75.96412861 93.2167444 -75.96412861 93.2167444 -61.75 105.8125 C-49.25699293 111.48808655 -35.57041397 111.59529402 -22.71875 107.078125 C-15.68045481 104.07758863 -9.72517104 100.23484484 -4.3203125 94.81640625 C-2.75 93.8125 -2.75 93.8125 -0.7890625 93.92578125 C1.74964883 95.02978024 3.11139453 96.41622389 5 98.4375 C8.37750648 101.95415468 11.88410633 105.19629626 15.5859375 108.3671875 C16.85166464 109.46652798 18.0645434 110.6270434 19.25 111.8125 C18.90624019 116.79701729 15.00874063 120.13913103 11.47265625 123.27734375 C-7.09411489 138.1106757 -28.69864897 143.38427444 -52.23828125 141.5390625 C-70.97997024 139.28921082 -87.89310783 131.94158839 -100.75 117.8125 C-115.62040946 98.81745142 -120.71750043 75.65694435 -118.0625 51.9375 C-115.91032573 35.46720422 -109.76847747 21.24360279 -98.75 8.8125 C-98.23050781 8.19890625 -97.71101562 7.5853125 -97.17578125 6.953125 C-72.86587791 -19.74490487 -27.84933192 -21.39317678 0 0 Z M-70.01953125 24.85546875 C-76.5624899 31.71404321 -79.20653527 38.55171161 -80.75 47.8125 C-58.31 47.8125 -35.87 47.8125 -12.75 47.8125 C-14.72948505 35.93558969 -17.04656886 27.10902537 -26.75 19.8125 C-41.3439549 11.47671673 -57.75987224 13.81966554 -70.01953125 24.85546875 Z " fill="#016630" transform="translate(880.75,794.1875)"/>
<path d="M0 0 C0.68690918 0.33435059 1.37381836 0.66870117 2.08154297 1.01318359 C5.42877655 2.65194172 8.75957606 4.31956909 12.078125 6.015625 C14.67383237 7.34059802 17.28503407 8.61835434 19.921875 9.859375 C42.18442867 20.42974684 71.70839495 37.98646343 84 60 C84.37253906 60.66515625 84.74507812 61.3303125 85.12890625 62.015625 C86.56339616 65.28343161 86.55379016 68.53714348 86 72 C84.41647283 74.89403242 83.06575282 77.17644097 80.44116211 79.20458984 C78.2388227 81.94828017 78.14780488 85.02413961 77.75390625 88.4140625 C77.65665756 89.14313812 77.55940887 89.87221375 77.45921326 90.62338257 C77.04457287 93.73305061 76.65902534 96.84611789 76.27319336 99.95947266 C74.8435885 111.31708909 73.31760068 120.69078658 65.625 129.625 C64.89539063 130.48351562 64.16578125 131.34203125 63.4140625 132.2265625 C62.13783737 133.69277584 60.85720516 135.15566959 59.54321289 136.58813477 C55.62173698 140.95345699 52.88895302 145.49726744 50.1875 150.6875 C44.99986995 160.3049065 38.98373432 168.62839095 31.75830078 176.84155273 C19.95885852 190.3764415 16.81030495 204.77705033 13 222 C11.97068011 226.6046073 10.9316126 231.20672064 9.87863159 235.80596924 C9.45152332 237.68820038 9.03718682 239.57331552 8.62329102 241.45849609 C5.72217351 254.23662766 2.64481521 267.23678986 -8.8125 274.875 C-12.36721641 276.12960579 -15.84993477 276.80683543 -19.5546875 277.46484375 C-22.25129369 277.97103811 -22.25129369 277.97103811 -25.5625 279.5625 C-37.47610365 284.54455244 -49.6142145 280.27247599 -61 275.625 C-100.21777618 258.85484163 -140.8340546 227.60616085 -162 190 C-164.67610647 181.9716806 -162.32330398 177.21825494 -158.7109375 169.9765625 C-156.1460444 164.42653958 -154.78087022 158.43756843 -153.35693359 152.51098633 C-151.31231835 144.59127135 -147.68587856 138.07194145 -140.5 133.75 C-139.34757812 133.02296875 -139.34757812 133.02296875 -138.171875 132.28125 C-136.38850371 131.22918924 -134.57307383 130.23165514 -132.75 129.25 C-126.34901706 124.01283214 -123.85481763 114.40129298 -121.0625 106.8125 C-120.36576604 104.94617263 -119.66784483 103.08028806 -118.96875 101.21484375 C-118.63230469 100.31620605 -118.29585938 99.41756836 -117.94921875 98.49169922 C-116.71716707 95.25756356 -115.39229019 92.07019032 -114.0625 88.875 C-111.22363784 81.87813048 -108.90617704 74.73832937 -106.5625 67.5625 C-100.1280481 48.0132587 -92.65659718 26.18270422 -75.3125 13.5625 C-74.26964844 12.7890625 -73.22679687 12.015625 -72.15234375 11.21875 C-70.16717565 9.82150653 -68.14143407 8.478687 -66.06640625 7.21875 C-61.01879243 4.29407229 -61.01879243 4.29407229 -58.11328125 -0.515625 C-57.83585631 -2.25653011 -57.6005497 -4.00483283 -57.4140625 -5.7578125 C-57 -8 -57 -8 -54.5625 -10.5625 C-38.5123119 -19.56626405 -14.73956922 -7.19387477 0 0 Z M-50 -5 C-48.92598892 -2.08482708 -48.22189824 -0.22189824 -46 2 C-44.00423087 2.15443452 -42.00154232 2.2222008 -40 2.25 C-12.01346094 4.10639355 18.5251565 22.76956114 42 37 C42.63115723 37.37141113 43.26231445 37.74282227 43.91259766 38.12548828 C56.70415464 45.67261708 66.70311434 56.11257732 74 69 C74.99 70.485 74.99 70.485 76 72 C76.66 72 77.32 72 78 72 C78.97861264 69.8949521 78.97861264 69.8949521 79 67 C77.73831256 64.03889684 75.92430179 61.56728883 74 59 C73.49855469 58.32066406 72.99710938 57.64132813 72.48046875 56.94140625 C65.93628168 48.89043119 57.31406795 43.07428672 49 37 C48.29101562 36.47438477 47.58203125 35.94876953 46.8515625 35.40722656 C36.36637196 27.64565197 25.56066002 21.03020018 14 15 C13.0723584 14.50967285 12.1447168 14.0193457 11.18896484 13.51416016 C-14.98154353 -0.77692365 -14.98154353 -0.77692365 -43.9375 -6.1875 C-44.66839844 -6.18105469 -45.39929688 -6.17460937 -46.15234375 -6.16796875 C-48.09457934 -6.10454339 -48.09457934 -6.10454339 -50 -5 Z M-45 5 C-40.30486711 14.91931315 -29.63953696 21.97254737 -21.04248047 28.45800781 C-19.61553819 29.53529294 -18.19302682 30.61846113 -16.77392578 31.70605469 C-6.29083513 39.73350824 4.2176549 47.0176055 16 53 C16.95229492 53.48944092 16.95229492 53.48944092 17.92382812 53.98876953 C44.34538781 67.92338071 44.34538781 67.92338071 73 73 C73 72.34 73 71.68 73 71 C72.34 71 71.68 71 71 71 C70.75507812 70.44957031 70.51015625 69.89914063 70.2578125 69.33203125 C66.36328189 62.11142637 60.3025108 55.86270538 54.01171875 50.671875 C52.62274584 49.51754412 51.27247381 48.31559678 49.95703125 47.078125 C26.37662142 24.91511686 -12.86120801 8.07139194 -45 5 Z M-61 15 C-61.57580811 15.40210693 -62.15161621 15.80421387 -62.74487305 16.21850586 C-68.0049461 19.92897608 -73.04320806 23.8935832 -78 28 C-77.62270752 28.41467529 -77.24541504 28.82935059 -76.85668945 29.2565918 C-73.07489134 33.52261199 -70.07560565 37.91174201 -67.1875 42.8125 C-59.25163191 55.80050241 -49.11648765 66.63060882 -35 73 C-34.34 73 -33.68 73 -33 73 C-33 73.66 -33 74.32 -33 75 C-36.48505832 75.77375844 -39.80564396 76.21533988 -43.375 76.3125 C-44.71691406 76.36857422 -44.71691406 76.36857422 -46.0859375 76.42578125 C-52.90342184 75.42966088 -56.74676354 71.62526357 -60.73095703 66.36450195 C-61.25286621 65.64609131 -61.77477539 64.92768066 -62.3125 64.1875 C-62.8679248 63.44137451 -63.42334961 62.69524902 -63.99560547 61.92651367 C-77.26261724 43.94246891 -77.26261724 43.94246891 -82 34 C-85.90977031 37.38274458 -87.7796501 41.06952669 -89.890625 45.6796875 C-90.23804749 46.4296701 -90.58546997 47.17965271 -90.94342041 47.95236206 C-94.17918157 55.10422822 -96.69029066 62.42017347 -99.04711914 69.8994751 C-103.12228518 82.80263413 -107.560909 95.52765172 -112.5 108.125 C-112.74939331 108.76149475 -112.99878662 109.3979895 -113.2557373 110.05377197 C-114.4111898 112.99552525 -115.57725388 115.93248038 -116.7578125 118.86425781 C-117.555267 120.87732888 -118.32364228 122.90230268 -119.0546875 124.94042969 C-121.40460719 131.38155956 -123.60623499 134.33737488 -129.90234375 137.421875 C-130.90394531 137.86015625 -131.90554688 138.2984375 -132.9375 138.75 C-140.09009521 142.24721486 -143.70278179 146.54376974 -146.75 153.8125 C-147.81529468 156.94716022 -148.36449474 160.04526631 -148.875 163.3125 C-149.71679325 168.57553781 -151.58849703 172.80082539 -154.07421875 177.4921875 C-155.22348142 180.60538004 -155.11233726 181.88165282 -154 185 C-152.62694631 187.17040353 -151.26919074 189.12043923 -149.6875 191.125 C-149.2430957 191.6926709 -148.79869141 192.2603418 -148.34082031 192.84521484 C-143.47977625 198.88525607 -137.93988621 204.03586138 -132 209 C-131.4745459 209.44021484 -130.9490918 209.88042969 -130.40771484 210.33398438 C-116.31086626 222.01386497 -101.03352111 232.00474893 -85.21533203 241.17724609 C-79.82684242 244.30509666 -74.53793151 247.53846741 -69.30834961 250.92529297 C-61.79320437 255.7886106 -54.56859313 260.21467568 -46 263 C-45.32614258 263.22268555 -44.65228516 263.44537109 -43.95800781 263.67480469 C-27.81662103 269.02290804 -27.81662103 269.02290804 -11.5 266.5 C2.53704823 252.46295177 4.55401324 226.08137207 8.05859375 207.4609375 C10.54638796 194.34648953 14.1430446 184.52079481 23.60180664 174.72241211 C27.41303031 170.7562344 30.75419003 166.56390575 34 162.125 C34.45656982 161.5064917 34.91313965 160.8879834 35.38354492 160.25073242 C37.97581736 156.66154412 40.27702265 153.10403634 42 149 C41.67 148.34 41.34 147.68 41 147 C36.90254586 150.50470446 32.8080835 154.01283883 28.71777344 157.52587891 C27.33707015 158.71074054 25.95406142 159.89291541 24.5703125 161.07421875 C22.69105278 162.69309911 20.8376727 164.33410975 19 166 C18.32453125 166.60972656 17.6490625 167.21945312 16.953125 167.84765625 C8.34836941 175.98335561 4.63091081 183.60457291 2.78125 195.2734375 C1.87354905 200.9964421 0.65728689 206.64917216 -0.5625 212.3125 C-0.87779663 213.82589966 -0.87779663 213.82589966 -1.19946289 215.36987305 C-1.4030542 216.31644775 -1.60664551 217.26302246 -1.81640625 218.23828125 C-1.99631104 219.08430908 -2.17621582 219.93033691 -2.36157227 220.80200195 C-3 223 -3 223 -5 226 C-10.62527345 214.74945311 -4.33018018 195.12062791 -1.08984375 183.828125 C1.12614398 177.65021981 4.73250748 172.92529483 9 168 C10.08087891 166.70255859 10.08087891 166.70255859 11.18359375 165.37890625 C16.72514114 158.96381444 22.69102267 153.86783195 29.4140625 148.7578125 C33.50268836 145.64656502 37.40243052 142.33328555 41.30249023 138.9909668 C44.770918 136.02357552 48.30198642 133.15433754 51.875 130.3125 C60.19339 123.52420802 65.67533667 117.73742343 66.8515625 106.78125 C66.98046875 105.60175781 67.109375 104.42226562 67.2421875 103.20703125 C67.36851562 101.98371094 67.49484375 100.76039063 67.625 99.5 C67.82609375 97.66501953 67.82609375 97.66501953 68.03125 95.79296875 C68.82405826 88.41316992 68.82405826 88.41316992 69 81 C68.37770508 80.82984375 67.75541016 80.6596875 67.11425781 80.484375 C38.58031116 72.61005284 10.77124869 62.04360253 -13.21044922 44.31152344 C-14.99680935 43.00233836 -16.80637795 41.7347995 -18.62890625 40.4765625 C-30.36570285 32.3422282 -40.9909165 23.34625871 -50.85546875 13.01953125 C-54.84254894 9.26484918 -57.2028986 12.32113003 -61 15 Z M-126 223 C-124.33479982 224.66813187 -122.66783749 226.33450498 -121 228 C-120.2884375 228.72058594 -119.576875 229.44117188 -118.84375 230.18359375 C-109.86346201 238.81963737 -99.48605838 245.3511639 -89 252 C-88.12504883 252.55574707 -87.25009766 253.11149414 -86.34863281 253.68408203 C-63.06766054 269.27306661 -63.06766054 269.27306661 -36.609375 274.59375 C-36.07828125 274.3978125 -35.5471875 274.201875 -35 274 C-35.83917969 273.76667969 -36.67835938 273.53335938 -37.54296875 273.29296875 C-56.34514351 267.58984393 -72.95810645 257.10070745 -89.43457031 246.62304688 C-91.97392368 245.01649746 -94.52716008 243.43476751 -97.0859375 241.859375 C-105.64293182 236.56707375 -113.80713578 231.10275369 -121.62890625 224.765625 C-123.77464095 222.80091731 -123.77464095 222.80091731 -126 223 Z " fill="#016630" transform="translate(553,151)"/>
<path d="M0 0 C1.51815699 0.00015911 3.0363194 0.00585313 4.55444336 0.01586914 C5.35208603 0.01728409 6.1497287 0.01869904 6.97154236 0.02015686 C9.52916146 0.02577223 12.08669429 0.03832727 14.64428711 0.05102539 C16.37410356 0.05603841 18.10392137 0.06060166 19.83374023 0.06469727 C24.08312264 0.07574664 28.33244023 0.09302153 32.58178711 0.11352539 C33.32828242 5.32139837 33.66534657 10.18177034 33.46069336 15.45727539 C33.41759033 16.65545898 33.3744873 17.85364258 33.33007812 19.08813477 C33.23811157 21.32820312 33.23811157 21.32820312 33.14428711 23.61352539 C32.86584961 30.79102539 32.86584961 30.79102539 32.58178711 38.11352539 C46.44178711 38.11352539 60.30178711 38.11352539 74.58178711 38.11352539 C75.95440987 40.85877091 75.71147521 43.07571834 75.71459961 46.14477539 C75.71588867 47.3474707 75.71717773 48.55016602 75.71850586 49.78930664 C75.71463867 51.05129883 75.71077148 52.31329102 75.70678711 53.61352539 C75.7106543 54.87551758 75.71452148 56.13750977 75.71850586 57.43774414 C75.7172168 58.64043945 75.71592773 59.84313477 75.71459961 61.08227539 C75.71347168 62.19022461 75.71234375 63.29817383 75.71118164 64.43969727 C75.58178711 67.11352539 75.58178711 67.11352539 74.58178711 69.11352539 C60.72178711 69.11352539 46.86178711 69.11352539 32.58178711 69.11352539 C32.70176184 81.91735073 32.70176184 81.91735073 32.83959961 94.72094727 C32.89981256 99.94608825 32.95797236 105.17119358 33.00366211 110.39648438 C33.04064659 114.61114464 33.08704162 118.82560755 33.13985062 123.04009819 C33.15832483 124.64473431 33.17345829 126.24941262 33.18513107 127.85411263 C33.20211361 130.10883746 33.23117591 132.36311717 33.26293945 134.61767578 C33.27626312 135.89896866 33.28958679 137.18026154 33.30331421 138.50038147 C33.70172345 143.66968134 34.56008829 147.76127695 37.70678711 151.92602539 C43.85296294 156.60246352 49.09123809 156.28712409 56.45678711 155.36352539 C62.55092602 154.51543449 68.55742508 153.36015846 74.58178711 152.11352539 C75.09262269 155.4244464 75.58841925 158.73746018 76.08178711 162.05102539 C76.22487305 162.9772168 76.36795898 163.9034082 76.51538086 164.85766602 C77.37346224 170.6803611 77.72665496 176.22826906 77.58178711 182.11352539 C61.72709014 191.16823946 42.99619028 192.7358014 25.33178711 188.48852539 C14.33284004 185.05435633 6.16527494 178.60750077 0.33178711 168.61352539 C-5.06075252 156.31155873 -4.83752884 142.4232558 -4.71118164 129.26977539 C-4.70556834 127.52144744 -4.70130648 125.77311468 -4.69831848 124.02478027 C-4.68700588 119.48087941 -4.65766031 114.93727822 -4.62420654 110.39349365 C-4.59320811 105.73380585 -4.57975033 101.0740684 -4.56469727 96.41430664 C-4.5327738 87.31391643 -4.4817477 78.21374608 -4.41821289 69.11352539 C-5.17030029 69.11876221 -5.9223877 69.12399902 -6.69726562 69.12939453 C-10.08340632 69.15009766 -13.46953373 69.16316416 -16.85571289 69.17602539 C-18.63171875 69.18859375 -18.63171875 69.18859375 -20.44360352 69.20141602 C-21.56831055 69.20463867 -22.69301758 69.20786133 -23.85180664 69.21118164 C-25.41499634 69.21903687 -25.41499634 69.21903687 -27.00976562 69.22705078 C-29.41821289 69.11352539 -29.41821289 69.11352539 -30.41821289 68.11352539 C-30.51824578 65.97999365 -30.54902337 63.84314997 -30.55102539 61.70727539 C-30.55231445 60.40661133 -30.55360352 59.10594727 -30.55493164 57.76586914 C-30.55283691 57.08508301 -30.55074219 56.40429688 -30.54858398 55.70288086 C-30.54323529 53.62224024 -30.54852969 51.5418155 -30.55493164 49.46118164 C-30.55364258 48.16051758 -30.55235352 46.85985352 -30.55102539 45.51977539 C-30.54989746 44.31643555 -30.54876953 43.1130957 -30.54760742 41.87329102 C-30.41821289 39.11352539 -30.41821289 39.11352539 -29.41821289 38.11352539 C-27.56451678 38.02614894 -25.70753748 38.00654386 -23.85180664 38.01586914 C-22.72709961 38.0190918 -21.60239258 38.02231445 -20.44360352 38.02563477 C-19.25959961 38.03401367 -18.0755957 38.04239258 -16.85571289 38.05102539 C-15.6678418 38.05553711 -14.4799707 38.06004883 -13.25610352 38.06469727 C-10.31009063 38.07652864 -7.36417608 38.09301252 -4.41821289 38.11352539 C-4.42606812 36.44012085 -4.42606812 36.44012085 -4.43408203 34.73291016 C-4.45213064 30.60873206 -4.46364438 26.48455749 -4.47314453 22.36035156 C-4.47818507 20.57258518 -4.48501743 18.78482295 -4.49365234 16.99707031 C-4.50573019 14.43301371 -4.51144383 11.86901142 -4.51586914 9.30493164 C-4.52103043 8.50076309 -4.52619171 7.69659454 -4.5315094 6.86805725 C-4.53170504 4.94950824 -4.48023272 3.03107171 -4.41821289 1.11352539 C-3.41821289 0.11352539 -3.41821289 0.11352539 0 0 Z " fill="#016630" transform="translate(550.418212890625,744.886474609375)"/>
<path d="M0 0 C8.8790625 -0.0309375 8.8790625 -0.0309375 17.9375 -0.0625 C19.80784912 -0.071604 21.67819824 -0.08070801 23.60522461 -0.09008789 C25.07926359 -0.09300709 26.55330337 -0.09555564 28.02734375 -0.09765625 C28.79953247 -0.10277222 29.57172119 -0.10788818 30.36730957 -0.11315918 C32.24525187 -0.11346974 34.12309253 -0.06233569 36 0 C37 1 37 1 37.11352539 4.51000977 C37.11336626 6.07048422 37.10767142 7.63096393 37.09765625 9.19140625 C37.0962413 10.01124496 37.09482635 10.83108368 37.09336853 11.67576599 C37.08775289 14.30471382 37.07519779 16.93357773 37.0625 19.5625 C37.05748701 21.34049357 37.05292376 23.11848846 37.04882812 24.89648438 C37.03777839 29.26435545 37.02050331 33.63216348 37 38 C38.17095215 37.98428955 39.3419043 37.9685791 40.54833984 37.95239258 C44.88306834 37.89818804 49.21776676 37.86368463 53.55273438 37.83520508 C55.43071526 37.82009675 57.30866076 37.79960906 59.18652344 37.77368164 C61.88225019 37.73738754 64.57751146 37.72029455 67.2734375 37.70703125 C68.11619232 37.69154739 68.95894714 37.67606354 69.82723999 37.66011047 C72.19287109 37.65942383 72.19287109 37.65942383 76 38 C78.20248093 41.30372139 78.24768405 42.31043777 78.23046875 46.1484375 C78.22853516 47.15390625 78.22660156 48.159375 78.22460938 49.1953125 C78.21236328 50.24460937 78.20011719 51.29390625 78.1875 52.375 C78.1865332 53.93734375 78.1865332 53.93734375 78.18554688 55.53125 C78.15832817 60.26125589 77.93533531 64.32332344 77 69 C63.8 69 50.6 69 37 69 C37.09086532 81.9816112 37.09086532 81.9816112 37.20898438 94.96289062 C37.26323198 100.26047054 37.31434494 105.55794638 37.34643555 110.85571289 C37.37252004 115.12879522 37.4129585 119.40152645 37.46318626 123.67439079 C37.47982027 125.30134641 37.49135609 126.9283627 37.49761391 128.55539131 C37.50729307 130.8414163 37.53539598 133.12655007 37.56762695 135.41235352 C37.58428154 137.36094017 37.58428154 137.36094017 37.60127258 139.34889221 C38.15125976 144.38507078 39.65961964 148.2287831 42.75 152.3125 C48.47961753 156.60971314 54.08231897 156.19160246 60.92578125 155.49609375 C64.72295377 154.88333529 68.23362269 153.83511709 71.84375 152.5234375 C74.30257511 151.9265488 75.60567525 152.31617584 78 153 C78.50790159 156.51973999 79.00488523 160.04094042 79.5 163.5625 C79.64308594 164.55314453 79.78617188 165.54378906 79.93359375 166.56445312 C80.65920623 171.76467588 81.17673411 176.74952418 81 182 C65.64286077 190.9524337 47.08984439 192.51581849 29.9375 188.375 C18.76333674 184.9432796 10.45681299 179.60847702 4.8125 169.25 C-1.44680587 155.74033149 -1.14657818 141.39206579 -1.09765625 126.8359375 C-1.09578765 125.19113203 -1.09436584 123.546326 -1.09336853 121.90151978 C-1.08957813 117.60425234 -1.07977814 113.30701952 -1.06866455 109.00976562 C-1.05837508 104.61198393 -1.05385487 100.21419655 -1.04882812 95.81640625 C-1.03815224 87.21092174 -1.02111835 78.60546519 -1 70 C-2.08269165 69.96241577 -2.08269165 69.96241577 -3.18725586 69.92407227 C-6.437535 69.80848698 -9.68749688 69.68559226 -12.9375 69.5625 C-14.07380859 69.52318359 -15.21011719 69.48386719 -16.38085938 69.44335938 C-17.46044922 69.40146484 -18.54003906 69.35957031 -19.65234375 69.31640625 C-20.65257568 69.27974854 -21.65280762 69.24309082 -22.68334961 69.20532227 C-25 69 -25 69 -26 68 C-26.10003289 65.86646826 -26.13081048 63.72962458 -26.1328125 61.59375 C-26.13410156 60.29308594 -26.13539063 58.99242187 -26.13671875 57.65234375 C-26.13462402 56.97155762 -26.1325293 56.29077148 -26.13037109 55.58935547 C-26.1250224 53.50871485 -26.1303168 51.42829011 -26.13671875 49.34765625 C-26.13542969 48.04699219 -26.13414062 46.74632812 -26.1328125 45.40625 C-26.13168457 44.20291016 -26.13055664 42.99957031 -26.12939453 41.75976562 C-26 39 -26 39 -25 38 C-23.14630389 37.91262355 -21.28932459 37.89301847 -19.43359375 37.90234375 C-18.42095459 37.90484131 -17.40831543 37.90733887 -16.36499023 37.90991211 C-15.06891846 37.91901611 -13.77284668 37.92812012 -12.4375 37.9375 C-6.2809375 37.9684375 -6.2809375 37.9684375 0 38 C0 25.46 0 12.92 0 0 Z " fill="#016630" transform="translate(667,745)"/>
<path d="M0 0 C5.25105442 -0.02464928 10.50207545 -0.04283568 15.75317383 -0.05493164 C17.54094021 -0.05997218 19.32870245 -0.06680454 21.11645508 -0.07543945 C23.68051168 -0.0875173 26.24451397 -0.09323094 28.80859375 -0.09765625 C29.6127623 -0.10281754 30.41693085 -0.10797882 31.24546814 -0.11329651 C33.16401715 -0.11349215 35.08245368 -0.06201983 37 0 C38.80843234 1.80843234 38.12529707 4.29166696 38.13374341 6.69929266 C38.13151268 7.52446969 38.12928196 8.34964671 38.12698364 9.1998291 C38.12854363 10.06977461 38.13010362 10.93972013 38.13171089 11.83602762 C38.13572473 14.77416546 38.13252976 17.71225234 38.12939453 20.65039062 C38.1307484 22.7474114 38.13252825 24.84443194 38.13470459 26.94145203 C38.13928062 32.65409358 38.13748867 38.36671717 38.1343255 44.07935905 C38.13180277 50.04334437 38.1341392 56.0073281 38.13571167 61.97131348 C38.13753362 71.98885374 38.13512639 82.00638664 38.13037109 92.02392578 C38.12492843 103.62382106 38.12669107 115.22369876 38.1321975 126.82359362 C38.1367279 136.76325141 38.13737954 146.7029039 38.13475883 156.64256239 C38.13319565 162.58774574 38.13300339 168.53292081 38.13629532 174.47810364 C38.13917298 180.06597025 38.13720028 185.6538141 38.13140106 191.24167824 C38.1300729 193.29888178 38.13046852 195.35608722 38.13266373 197.41329002 C38.13537303 200.20894332 38.13199681 203.00452241 38.12698364 205.8001709 C38.12921436 206.62534792 38.13144509 207.45052495 38.13374341 208.30070734 C38.11414983 213.88585017 38.11414983 213.88585017 37 215 C34.26105915 215.08858646 31.5474673 215.11523479 28.80859375 215.09765625 C27.98875504 215.0962413 27.16891632 215.09482635 26.32423401 215.09336853 C23.69528618 215.08775289 21.06642227 215.07519779 18.4375 215.0625 C16.65950643 215.05748701 14.88151154 215.05292376 13.10351562 215.04882812 C8.73564455 215.03777839 4.36783652 215.02050331 0 215 C-1.60608916 211.78782169 -1.13665488 208.29078443 -1.12698364 204.76257324 C-1.12854363 203.90064598 -1.13010362 203.03871871 -1.13171089 202.15067244 C-1.13571813 199.24561349 -1.13253229 196.34060626 -1.12939453 193.43554688 C-1.13074869 191.35970529 -1.13252871 189.28386395 -1.13470459 187.20802307 C-1.13927714 181.55735502 -1.13749009 175.90670515 -1.1343255 170.25603676 C-1.13180099 164.3539182 -1.1341397 158.45180124 -1.13571167 152.54968262 C-1.1375331 142.63647175 -1.13512776 132.72326833 -1.13037109 122.81005859 C-1.12492853 111.33456244 -1.1266912 99.85908404 -1.1321975 88.38358831 C-1.13672939 78.54665394 -1.1373788 68.70972494 -1.13475883 58.87278986 C-1.13319648 52.99074671 -1.13300116 47.10871193 -1.13629532 41.22666931 C-1.13917513 35.6978821 -1.13719629 30.16911789 -1.13140106 24.64033318 C-1.13007406 22.60612463 -1.13046657 20.57191417 -1.13266373 18.53770638 C-1.13537755 15.77092 -1.1319912 13.00420832 -1.12698364 10.23742676 C-1.12921436 9.42362659 -1.13144509 8.60982642 -1.13374341 7.77136564 C-1.11415003 2.22830007 -1.11415003 2.22830007 0 0 Z " fill="#016630" transform="translate(386,718)"/>
<path d="M0 0 C0.24084388 25.64431527 0.24084388 25.64431527 -1 36 C-2 37 -2 37 -3.74316406 37.05004883 C-4.49307617 37.01935303 -5.24298828 36.98865723 -6.015625 36.95703125 C-18.82259015 36.58297869 -31.07874721 36.68614765 -41.41796875 45.37109375 C-52.09487169 56.36434937 -50.15028964 74.73531416 -50.01403427 88.88156319 C-49.99169758 91.30710706 -49.97782775 93.73256955 -49.96633911 96.15818787 C-49.93301117 103.0444533 -49.89069463 109.93058033 -49.82861328 116.81665039 C-49.79102834 121.05148413 -49.76797128 125.28618656 -49.75430679 129.52116203 C-49.74625471 131.12917731 -49.73264882 132.73717476 -49.71337509 134.34509468 C-49.68697482 136.58252615 -49.67901164 138.81931724 -49.67529297 141.05688477 C-49.66561493 142.32863052 -49.65593689 143.60037628 -49.64596558 144.91065979 C-50 148 -50 148 -51.31066895 149.91166687 C-54.1338916 151.73049731 -57.22990245 151.38512881 -60.4765625 151.328125 C-61.20241547 151.32625183 -61.92826843 151.32437866 -62.67611694 151.32244873 C-64.20762742 151.3157342 -65.73912092 151.30183143 -67.27050781 151.28125 C-69.62320767 151.25002379 -71.97523823 151.24027196 -74.328125 151.234375 C-75.81511239 151.2252078 -77.30209294 151.21483293 -78.7890625 151.203125 C-79.49632477 151.19887512 -80.20358704 151.19462524 -80.93228149 151.19024658 C-85.88282244 151.11717756 -85.88282244 151.11717756 -87 150 C-87.09660952 148.07638373 -87.12187168 146.14916934 -87.12025452 144.22312927 C-87.12162918 142.96804565 -87.12300385 141.71296204 -87.12442017 140.41984558 C-87.12088055 139.01614356 -87.11724574 137.61244178 -87.11352539 136.20874023 C-87.11324353 134.74063112 -87.11340124 133.27252187 -87.1139679 131.80441284 C-87.1142559 127.80665343 -87.10835874 123.80892376 -87.10139394 119.81117129 C-87.09516085 115.63779267 -87.09455664 111.46441344 -87.09336853 107.29103088 C-87.09025508 99.38267208 -87.08204151 91.47432703 -87.07201904 83.5659743 C-87.06085832 74.56491506 -87.05534756 65.56385518 -87.05032361 56.56279075 C-87.03985891 38.04185111 -87.02151326 19.52093033 -87 1 C-75.45 1 -63.9 1 -52 1 C-50.5192152 3.9615696 -50.64685963 6.83506295 -50.4375 10.125 C-50.35371094 11.40632812 -50.26992188 12.68765625 -50.18359375 14.0078125 C-50.12300781 14.99523437 -50.06242188 15.98265625 -50 17 C-49.21625 15.989375 -48.4325 14.97875 -47.625 13.9375 C-40.12965737 5.26607316 -30.52831472 0.58490836 -19.4375 -1.75 C-12.41833667 -2.26048461 -6.69238296 -2.45743525 0 0 Z " fill="#016630" transform="translate(1019,782)"/>
<path d="M0 0 C0.75728394 0.00202423 1.51456787 0.00404846 2.2947998 0.00613403 C3.06787476 0.00517731 3.84094971 0.00422058 4.63745117 0.00323486 C6.27502524 0.00255313 7.91260199 0.00440697 9.5501709 0.00857544 C12.06536901 0.01392382 14.58038854 0.00863027 17.09558105 0.00222778 C18.68282103 0.00288857 20.2700609 0.00416973 21.8572998 0.00613403 C22.99322571 0.00309769 22.99322571 0.00309769 24.15209961 0 C29.46109849 0.02399522 29.46109849 0.02399522 30.5760498 1.13894653 C30.6748255 3.04758702 30.70237188 4.95992969 30.70303345 6.87112427 C30.70585327 8.11634857 30.7086731 9.36157288 30.71157837 10.64453125 C30.70963377 12.03720107 30.70758559 13.42987075 30.70544434 14.82254028 C30.70679833 16.27917525 30.70857825 17.73580988 30.71075439 19.19244385 C30.71532893 23.1592759 30.71353909 27.12608206 30.71037531 31.09291458 C30.70785181 35.23513104 30.71018922 39.37734522 30.71176147 43.51956177 C30.7135832 50.47700399 30.71117678 57.43443561 30.7064209 64.39187622 C30.70097827 72.44722181 30.70274093 80.5025421 30.7082473 88.55788708 C30.71277835 95.46147727 30.71342902 102.36505981 30.71080863 109.26865101 C30.70924581 113.39736661 30.70905223 117.52607031 30.71234512 121.65478516 C30.71522372 125.53544175 30.71324837 129.41606556 30.70745087 133.2967186 C30.7061232 134.72502462 30.70651749 136.15333338 30.70871353 137.58163834 C30.71142476 139.52334752 30.70743046 141.4650627 30.70303345 143.4067688 C30.70265642 144.49595108 30.7022794 145.58513336 30.70189095 146.70732117 C30.5760498 149.13894653 30.5760498 149.13894653 29.5760498 150.13894653 C26.99415534 150.23986129 24.4395848 150.27866152 21.8572998 150.27175903 C20.69768738 150.27319412 20.69768738 150.27319412 19.51464844 150.2746582 C17.87707437 150.27533994 16.23949762 150.2734861 14.60192871 150.26931763 C12.0867306 150.26396925 9.57171107 150.2692628 7.05651855 150.27566528 C5.46927857 150.2750045 3.88203871 150.27372334 2.2947998 150.27175903 C1.53751587 150.27378326 0.78023193 150.2758075 0 150.27789307 C-5.30899888 150.25389785 -5.30899888 150.25389785 -6.4239502 149.13894653 C-6.52272589 147.23030604 -6.55027227 145.31796338 -6.55093384 143.4067688 C-6.55375366 142.16154449 -6.55657349 140.91632019 -6.55947876 139.63336182 C-6.55753416 138.240692 -6.55548598 136.84802232 -6.55334473 135.45535278 C-6.55469872 133.99871782 -6.55647865 132.54208319 -6.55865479 131.08544922 C-6.56322932 127.11861717 -6.56143948 123.15181101 -6.5582757 119.18497849 C-6.5557522 115.04276202 -6.55808961 110.90054784 -6.55966187 106.7583313 C-6.56148359 99.80088908 -6.55907717 92.84345746 -6.55432129 85.88601685 C-6.54887866 77.83067125 -6.55064132 69.77535097 -6.55614769 61.72000599 C-6.56067874 54.8164158 -6.56132942 47.91283325 -6.55870903 41.00924206 C-6.5571462 36.88052645 -6.55695262 32.75182276 -6.56024551 28.62310791 C-6.56312411 24.74245132 -6.56114876 20.8618275 -6.55535126 16.98117447 C-6.55402359 15.55286844 -6.55441788 14.12455968 -6.55661392 12.69625473 C-6.55932515 10.75454555 -6.55533085 8.81283037 -6.55093384 6.87112427 C-6.55055681 5.78194199 -6.55017979 4.6927597 -6.54979134 3.5705719 C-6.31510802 -0.96420826 -3.97730952 0.01797635 0 0 Z " fill="#016630" transform="translate(465.4239501953125,782.8610534667969)"/>
<path d="M0 0 C6.36177138 6.59214193 7.52013994 11.44451574 7.37890625 20.51171875 C6.68596815 26.89103547 3.65547062 30.68990077 -1 34.875 C-7.41295785 39.41751181 -13.30990716 39.79000954 -21 39 C-27.18595462 37.28110745 -31.52843784 33.31790255 -35 28 C-37.91340348 21.97364487 -38.13679475 15.09109967 -36.34765625 8.65234375 C-33.47195117 2.24680325 -28.32698307 -2.12871853 -22 -5 C-14.22895883 -7.22029748 -6.11924908 -5.12309225 0 0 Z " fill="#016630" transform="translate(492,722)"/>
<path d="M0 0 C0.75 1.625 0.75 1.625 1 4 C-1.5813952 8.61933877 -4.05043411 11.03629217 -8.625 13.625 C-9.77935853 14.29864259 -10.9315789 14.97595789 -12.08203125 15.65625 C-12.7054541 16.02363281 -13.32887695 16.39101563 -13.97119141 16.76953125 C-17.82584145 19.10736954 -21.56456949 21.62095125 -25.3125 24.125 C-26.05258301 24.61564941 -26.79266602 25.10629883 -27.55517578 25.61181641 C-36.72517238 31.30839664 -36.72517238 31.30839664 -44 39 C-45.18924058 46.13544346 -41.80180061 51.1376815 -38 57 C-36.18280621 59.52802911 -34.31077771 62.01337592 -32.4375 64.5 C-23.92940325 75.87727129 -18 89.52614562 -18 104 C-21 103 -21 103 -22.48046875 100.40234375 C-23.04378906 99.25894531 -23.60710937 98.11554688 -24.1875 96.9375 C-27.5606804 90.52537329 -31.84155501 85.79775662 -37.0625 80.8125 C-46.67887857 71.58698637 -54.68848387 61.83258643 -55.375 47.9375 C-54.53687486 39.13718598 -52.29775265 34.81256695 -45.58374023 29.05175781 C-41.42145892 25.74647461 -37.01553839 22.91962635 -32.5 20.125 C-31.54818848 19.5271167 -30.59637695 18.9292334 -29.61572266 18.31323242 C-22.90924973 14.12238765 -16.13565608 10.04887897 -9.27929688 6.10791016 C-6.0333746 4.23783484 -2.92882478 2.34157311 0 0 Z " fill="#016630" transform="translate(486,252)"/>
<path d="M0 0 C-3.26775642 3.87674264 -6.86226768 5.3739918 -11.5390625 6.98046875 C-12.26112885 7.23878983 -12.98319519 7.4971109 -13.72714233 7.76325989 C-16.02278844 8.58206051 -18.32356664 9.38512789 -20.625 10.1875 C-22.93222501 11.00406162 -25.23832055 11.82375028 -27.54428101 12.64387512 C-28.97672979 13.1519899 -30.41015515 13.65736161 -31.84463501 14.15971375 C-35.48453493 15.42886576 -35.48453493 15.42886576 -39 17 C-28.98556012 26.37453957 -17.94709587 34.43415345 -5.65991211 40.53881836 C-1.09015718 42.81968564 -1.09015718 42.81968564 0 45 C-7.82725782 47.60908594 -13.84855396 45.37545032 -21 42 C-23.96540668 40.27433472 -26.76032088 38.35231455 -29.5625 36.375 C-36.41032286 31.66362224 -43.37166886 27.30439194 -50.60571289 23.21044922 C-57.11768085 19.48864851 -57.11768085 19.48864851 -59 17 C-58.89379883 14.94116211 -58.89379883 14.94116211 -58 13 C-51.68988678 9.06458028 -45.01153753 7.55000664 -37.8125 5.9375 C-36.69915283 5.68145996 -35.58580566 5.42541992 -34.4387207 5.16162109 C-32.25582327 4.65985332 -30.07217296 4.16134684 -27.88769531 3.66650391 C-25.54725034 3.12630989 -23.22175496 2.55764888 -20.8984375 1.94921875 C-13.81927212 0.13206073 -7.30288491 -0.35527548 0 0 Z " fill="#016630" transform="translate(538,298)"/>
<path d="M0 0 C5.25820373 0.51775152 9.36484362 1.88243332 14.125 4.1875 C28.3539317 10.69325948 43.41326905 14.19602954 58.80517578 16.70776367 C63.10935518 17.41554609 67.02136164 18.11014678 71 20 C68.37812206 23.39301851 65.05828855 24.25722576 61 25 C56.97619955 25.30988855 52.97186863 25.33359553 48.9375 25.3125 C47.82221924 25.30686035 46.70693848 25.3012207 45.55786133 25.29541016 C31.14467445 25.08352865 17.05346804 22.71047537 5.9375 12.6875 C2.52871597 8.9794081 1.15170013 4.83714056 0 0 Z " fill="#016530" transform="translate(540,244)"/>
<path d="M0 0 C5.57566631 1.37706787 10.56152264 4.11800904 15.64404297 6.73095703 C17.31756836 7.55370117 17.31756836 7.55370117 19.02490234 8.39306641 C27.06158371 12.45613379 35.60359233 17.01403108 40.70654297 24.66845703 C40.16600243 29.20899757 40.16600243 29.20899757 38.70654297 30.66845703 C25.94728941 32.1406786 13.99520021 23.93518027 3.42871094 17.68603516 C1.97801252 16.82886036 0.51720168 15.98883344 -0.94580078 15.15283203 C-4.86954591 12.84388704 -7.99905786 10.65871645 -10.29345703 6.66845703 C-10.23095703 3.98095703 -10.23095703 3.98095703 -9.29345703 1.66845703 C-5.83396465 -0.63787122 -4.03835255 -0.56104109 0 0 Z " fill="#016630" transform="translate(559.29345703125,177.33154296875)"/>
<path d="M0 0 C8.05078871 0.56758807 16.088719 1.25695935 24.125 2 C25.51174927 2.1244751 25.51174927 2.1244751 26.92651367 2.25146484 C27.79896729 2.33348145 28.6714209 2.41549805 29.5703125 2.5 C30.74231201 2.60828125 30.74231201 2.60828125 31.93798828 2.71875 C34 3 34 3 37 4 C37.495 6.475 37.495 6.475 38 9 C34.27207583 12.14282397 32.03261572 12.56118612 27.2578125 12.42578125 C17.92565125 11.2061103 8.27647131 8.49407121 0 4 C0 2.68 0 1.36 0 0 Z " fill="#016630" transform="translate(505,392)"/>
<path d="M0 0 C6.52924027 0.16741642 10.28126683 3.94566446 15 8 C15.87785156 8.74378906 16.75570313 9.48757813 17.66015625 10.25390625 C26.45404172 17.90808344 26.45404172 17.90808344 29 23 C28.67 23.99 28.34 24.98 28 26 C18.08462712 24.86476166 10.29387202 17.38152272 4 10 C1.69182041 6.73333905 0 4.11063958 0 0 Z " fill="#016630" transform="translate(417,335)"/>
</svg>
