<?xml version="1.0" encoding="UTF-8"?>
<svg version="1.1" xmlns="http://www.w3.org/2000/svg" width="508" height="641">
<path d="M0 0 C0.97340332 0.1556543 1.94680664 0.31130859 2.94970703 0.47167969 C36.8698953 6.1372954 70.66164212 19.41414637 99 39 C99.59232422 39.40138184 100.18464844 39.80276367 100.79492188 40.21630859 C114.18416486 49.31421993 126.21868761 59.9321792 138 71 C138.65613281 71.61359375 139.31226563 72.2271875 139.98828125 72.859375 C145.14132975 77.83473217 149.53764748 83.40956477 154 89 C154.86499989 90.05151034 155.73090715 91.1022748 156.59765625 92.15234375 C184.24253933 125.99686921 200.97024108 167.11847061 208 210 C208.226875 211.299375 208.45375 212.59875 208.6875 213.9375 C220.79208088 295.97965929 180.94895925 373.51639108 136 439 C135.50306641 439.72461426 135.00613281 440.44922852 134.49414062 441.19580078 C126.74286028 452.42694866 118.32845832 463.19504628 110 474 C109.46665039 474.69222656 108.93330078 475.38445312 108.38378906 476.09765625 C102.63918597 483.53319567 96.71211399 490.78180118 90.609375 497.92578125 C88.23730965 500.70733088 85.92507288 503.53348661 83.625 506.375 C75.46419972 516.38986402 66.91396325 526.07406415 58.1875 535.59765625 C56.3033966 537.66680552 54.45545253 539.75853926 52.625 541.875 C48.09417961 547.08174698 43.38592424 552.12625838 38.68847656 557.18212891 C37.53583082 558.42310637 36.3841811 559.66500952 35.23339844 560.90771484 C22.60825804 574.54108924 22.60825804 574.54108924 16.16015625 580.77734375 C14.32601736 582.66454995 12.62117067 584.58952635 10.90966797 586.5859375 C6.88551073 591.19635143 2.61672079 595.52747916 -1.71484375 599.84765625 C-2.93670128 601.07094887 -2.93670128 601.07094887 -4.1832428 602.31895447 C-5.89559193 604.03198008 -7.60918842 605.74375965 -9.32397461 607.4543457 C-11.93002015 610.05503552 -14.53068522 612.66101956 -17.13085938 615.26757812 C-18.80436699 616.94042486 -20.47818482 618.61296134 -22.15234375 620.28515625 C-22.9202977 621.05513443 -23.68825165 621.82511261 -24.47947693 622.61842346 C-28.64707178 626.76820772 -32.89892925 630.75295964 -37.36573792 634.57981873 C-38.62138304 635.67098012 -39.82371817 636.82371817 -41 638 C-45.02486944 637.7864136 -47.00621575 635.32528573 -49.703125 632.5546875 C-50.60160156 631.64203125 -51.50007812 630.729375 -52.42578125 629.7890625 C-53.36764053 628.8181476 -54.30904436 627.84679068 -55.25 626.875 C-60.7963211 621.19606644 -66.30477719 615.5815621 -72.34228516 610.421875 C-74.33298473 608.71438835 -76.21232771 606.92080492 -78.0625 605.0625 C-78.94615234 604.18271484 -78.94615234 604.18271484 -79.84765625 603.28515625 C-81.59940997 601.42530883 -83.24836238 599.53446575 -84.90234375 597.58984375 C-90.42857406 591.23810013 -96.51672727 585.41588269 -102.5 579.5 C-116.66255222 565.49696164 -116.66255222 565.49696164 -121.6015625 559.6171875 C-123.15460087 557.82121575 -124.80494095 556.1618226 -126.5 554.5 C-129.46715801 551.57869212 -132.20058971 548.52008327 -134.91796875 545.3671875 C-137.560464 542.36277451 -140.27840173 539.43265928 -143 536.5 C-147.41511903 531.73377807 -151.76922398 526.93152568 -156 522 C-156.41685059 521.5148291 -156.83370117 521.0296582 -157.26318359 520.52978516 C-159.78943384 517.58907884 -162.31217446 514.64540512 -164.83203125 511.69921875 C-166.86571395 509.32213047 -168.9045022 506.94963379 -170.94921875 504.58203125 C-182.83406154 490.80714072 -194.35450663 476.78827089 -205.30078125 462.25390625 C-207.07999863 459.89388687 -208.86789397 457.54060004 -210.65625 455.1875 C-232.45346551 426.42535982 -252.27246231 396.49566184 -268.03662109 363.97558594 C-268.99521129 362.00982013 -269.97506216 360.05573471 -270.95703125 358.1015625 C-287.30034137 325.09187213 -297.0581075 287.85666303 -298 251 C-298.03996094 249.86046875 -298.07992188 248.7209375 -298.12109375 247.546875 C-299.19415238 190.23291995 -278.77058579 131.31549044 -241 88 C-240.06703966 86.88706577 -239.13618427 85.77236482 -238.20703125 84.65625 C-228.41563457 72.95656443 -218.06169037 62.39832219 -206 53 C-204.7445289 51.99251485 -203.489339 50.98467923 -202.234375 49.9765625 C-187.07745528 37.94433346 -170.57441671 28.08465364 -153 20 C-151.95271729 19.51370117 -151.95271729 19.51370117 -150.88427734 19.01757812 C-130.96669273 9.88441977 -109.67231019 3.29485726 -88 0 C-87.03674805 -0.14808105 -86.07349609 -0.29616211 -85.08105469 -0.44873047 C-56.96238341 -4.57807692 -28.05857156 -4.56884556 0 0 Z M-164.43066406 123.46582031 C-166.03720127 125.03636789 -167.66881802 126.57726345 -169.3046875 128.1171875 C-199.15379892 156.59558709 -217.95706195 199.08280788 -219.06201172 240.31396484 C-220.05444825 284.57991501 -206.40212163 323.89751563 -181 360 C-180.30849854 360.98685791 -180.30849854 360.98685791 -179.60302734 361.99365234 C-171.83841723 373.0367085 -163.65318445 383.6413635 -155 394 C-154.51257324 394.58652344 -154.02514648 395.17304688 -153.52294922 395.77734375 C-147.99689618 402.41990427 -142.34309172 408.91585397 -136.484375 415.26953125 C-134.49049487 417.46091837 -132.53189098 419.67271059 -130.5859375 421.90625 C-119.92610667 434.11564091 -108.507684 445.59568624 -97.0625 457.0625 C-96.42898621 457.69860199 -95.79547241 458.33470398 -95.14276123 458.99008179 C-86.1113845 468.06027286 -86.1113845 468.06027286 -76.59936523 476.61889648 C-74.27506983 478.6260006 -72.14135185 480.80077378 -70 483 C-66.49865743 486.53864759 -62.93446583 489.90309854 -59.1484375 493.1328125 C-55.48730868 496.31466628 -51.96310414 499.65081108 -48.41796875 502.9609375 C-46.09720151 505.17306698 -46.09720151 505.17306698 -43 506 C-35.47010843 501.21933143 -28.94073506 494.25974108 -22.47949219 488.13842773 C-18.72023112 484.57710286 -14.88420237 481.13074011 -10.97631836 477.73339844 C0.33795716 467.80982139 10.97657824 457.12579101 21.625 446.5 C22.18757507 445.94001312 22.75015015 445.38002625 23.32977295 444.80307007 C28.8937606 439.25929553 34.40618194 433.71214329 39.51025391 427.73486328 C41.8810252 424.97401425 44.38605979 422.34136494 46.875 419.6875 C51.28226211 414.94500684 55.49064391 410.09950345 59.54296875 405.046875 C61.39945546 402.74471342 63.27495624 400.46817659 65.17578125 398.203125 C82.2319269 377.83311751 97.40641071 356.40990676 110 333 C110.61617188 331.87464844 111.23234375 330.74929688 111.8671875 329.58984375 C133.14400855 289.16388375 136.80785515 241.01098162 123.78515625 197.44921875 C115.45362233 171.21544799 100.94416763 148.79744892 82 129 C81.113125 128.06027344 80.22625 127.12054688 79.3125 126.15234375 C48.32485962 94.12877934 3.43741099 76.46430089 -40.74462891 75.71655273 C-86.86937899 75.37668615 -131.17081414 90.7935261 -164.43066406 123.46582031 Z " fill="#016630" transform="translate(298,3)"/>
<path d="M0 0 C0.68690918 0.33435059 1.37381836 0.66870117 2.08154297 1.01318359 C5.42877655 2.65194172 8.75957606 4.31956909 12.078125 6.015625 C14.67383237 7.34059802 17.28503407 8.61835434 19.921875 9.859375 C42.18442867 20.42974684 71.70839495 37.98646343 84 60 C84.37253906 60.66515625 84.74507812 61.3303125 85.12890625 62.015625 C86.56339616 65.28343161 86.55379016 68.53714348 86 72 C84.41647283 74.89403242 83.06575282 77.17644097 80.44116211 79.20458984 C78.2388227 81.94828017 78.14780488 85.02413961 77.75390625 88.4140625 C77.65665756 89.14313812 77.55940887 89.87221375 77.45921326 90.62338257 C77.04457287 93.73305061 76.65902534 96.84611789 76.27319336 99.95947266 C74.8435885 111.31708909 73.31760068 120.69078658 65.625 129.625 C64.89539063 130.48351562 64.16578125 131.34203125 63.4140625 132.2265625 C62.13783737 133.69277584 60.85720516 135.15566959 59.54321289 136.58813477 C55.62173698 140.95345699 52.88895302 145.49726744 50.1875 150.6875 C44.99986995 160.3049065 38.98373432 168.62839095 31.75830078 176.84155273 C19.95885852 190.3764415 16.81030495 204.77705033 13 222 C11.97068011 226.6046073 10.9316126 231.20672064 9.87863159 235.80596924 C9.45152332 237.68820038 9.03718682 239.57331552 8.62329102 241.45849609 C5.72217351 254.23662766 2.64481521 267.23678986 -8.8125 274.875 C-12.36721641 276.12960579 -15.84993477 276.80683543 -19.5546875 277.46484375 C-22.25129369 277.97103811 -22.25129369 277.97103811 -25.5625 279.5625 C-37.47610365 284.54455244 -49.6142145 280.27247599 -61 275.625 C-100.21777618 258.85484163 -140.8340546 227.60616085 -162 190 C-164.67610647 181.9716806 -162.32330398 177.21825494 -158.7109375 169.9765625 C-156.1460444 164.42653958 -154.78087022 158.43756843 -153.35693359 152.51098633 C-151.31231835 144.59127135 -147.68587856 138.07194145 -140.5 133.75 C-139.34757812 133.02296875 -139.34757812 133.02296875 -138.171875 132.28125 C-136.38850371 131.22918924 -134.57307383 130.23165514 -132.75 129.25 C-126.34901706 124.01283214 -123.85481763 114.40129298 -121.0625 106.8125 C-120.36576604 104.94617263 -119.66784483 103.08028806 -118.96875 101.21484375 C-118.63230469 100.31620605 -118.29585937 99.41756836 -117.94921875 98.49169922 C-116.71716707 95.25756356 -115.39229019 92.07019032 -114.0625 88.875 C-111.22363784 81.87813048 -108.90617704 74.73832937 -106.5625 67.5625 C-100.1280481 48.0132587 -92.65659718 26.18270422 -75.3125 13.5625 C-74.26964844 12.7890625 -73.22679687 12.015625 -72.15234375 11.21875 C-70.16717565 9.82150653 -68.14143407 8.478687 -66.06640625 7.21875 C-61.01879243 4.29407229 -61.01879243 4.29407229 -58.11328125 -0.515625 C-57.83585631 -2.25653011 -57.6005497 -4.00483283 -57.4140625 -5.7578125 C-57 -8 -57 -8 -54.5625 -10.5625 C-38.5123119 -19.56626405 -14.73956922 -7.19387477 0 0 Z M-50 -5 C-48.92598892 -2.08482708 -48.22189824 -0.22189824 -46 2 C-44.00423087 2.15443452 -42.00154232 2.2222008 -40 2.25 C-12.01346094 4.10639355 18.5251565 22.76956114 42 37 C42.63115723 37.37141113 43.26231445 37.74282227 43.91259766 38.12548828 C56.70415464 45.67261708 66.70311434 56.11257732 74 69 C74.99 70.485 74.99 70.485 76 72 C76.66 72 77.32 72 78 72 C78.97861264 69.8949521 78.97861264 69.8949521 79 67 C77.73831256 64.03889684 75.92430179 61.56728883 74 59 C73.49855469 58.32066406 72.99710937 57.64132813 72.48046875 56.94140625 C65.93628168 48.89043119 57.31406795 43.07428672 49 37 C48.29101562 36.47438477 47.58203125 35.94876953 46.8515625 35.40722656 C36.36637196 27.64565197 25.56066002 21.03020018 14 15 C13.0723584 14.50967285 12.1447168 14.0193457 11.18896484 13.51416016 C-14.98154353 -0.77692365 -14.98154353 -0.77692365 -43.9375 -6.1875 C-44.66839844 -6.18105469 -45.39929688 -6.17460937 -46.15234375 -6.16796875 C-48.09457934 -6.10454339 -48.09457934 -6.10454339 -50 -5 Z M-45 5 C-40.30486711 14.91931315 -29.63953696 21.97254737 -21.04248047 28.45800781 C-19.61553819 29.53529294 -18.19302682 30.61846113 -16.77392578 31.70605469 C-6.29083513 39.73350824 4.2176549 47.0176055 16 53 C16.95229492 53.48944092 16.95229492 53.48944092 17.92382812 53.98876953 C44.34538781 67.92338071 44.34538781 67.92338071 73 73 C73 72.34 73 71.68 73 71 C72.34 71 71.68 71 71 71 C70.75507813 70.44957031 70.51015625 69.89914063 70.2578125 69.33203125 C66.36328189 62.11142637 60.3025108 55.86270538 54.01171875 50.671875 C52.62274584 49.51754412 51.27247381 48.31559678 49.95703125 47.078125 C26.37662142 24.91511686 -12.86120801 8.07139194 -45 5 Z M-61 15 C-61.57580811 15.40210693 -62.15161621 15.80421387 -62.74487305 16.21850586 C-68.0049461 19.92897608 -73.04320806 23.8935832 -78 28 C-77.62270752 28.41467529 -77.24541504 28.82935059 -76.85668945 29.2565918 C-73.07489134 33.52261199 -70.07560565 37.91174201 -67.1875 42.8125 C-59.25163191 55.80050241 -49.11648765 66.63060882 -35 73 C-34.34 73 -33.68 73 -33 73 C-33 73.66 -33 74.32 -33 75 C-36.48505832 75.77375844 -39.80564396 76.21533988 -43.375 76.3125 C-44.71691406 76.36857422 -44.71691406 76.36857422 -46.0859375 76.42578125 C-52.90342184 75.42966088 -56.74676354 71.62526357 -60.73095703 66.36450195 C-61.25286621 65.64609131 -61.77477539 64.92768066 -62.3125 64.1875 C-62.8679248 63.44137451 -63.42334961 62.69524902 -63.99560547 61.92651367 C-77.26261724 43.94246891 -77.26261724 43.94246891 -82 34 C-85.90977031 37.38274458 -87.7796501 41.06952669 -89.890625 45.6796875 C-90.23804749 46.4296701 -90.58546997 47.17965271 -90.94342041 47.95236206 C-94.17918157 55.10422822 -96.69029066 62.42017347 -99.04711914 69.8994751 C-103.12228518 82.80263413 -107.560909 95.52765172 -112.5 108.125 C-112.74939331 108.76149475 -112.99878662 109.3979895 -113.2557373 110.05377197 C-114.4111898 112.99552525 -115.57725388 115.93248038 -116.7578125 118.86425781 C-117.555267 120.87732888 -118.32364228 122.90230268 -119.0546875 124.94042969 C-121.40460719 131.38155956 -123.60623499 134.33737488 -129.90234375 137.421875 C-130.90394531 137.86015625 -131.90554687 138.2984375 -132.9375 138.75 C-140.09009521 142.24721486 -143.70278179 146.54376974 -146.75 153.8125 C-147.81529468 156.94716022 -148.36449474 160.04526631 -148.875 163.3125 C-149.71679325 168.57553781 -151.58849703 172.80082539 -154.07421875 177.4921875 C-155.22348142 180.60538004 -155.11233726 181.88165282 -154 185 C-152.62694631 187.17040353 -151.26919074 189.12043923 -149.6875 191.125 C-149.2430957 191.6926709 -148.79869141 192.2603418 -148.34082031 192.84521484 C-143.47977625 198.88525607 -137.93988621 204.03586138 -132 209 C-131.4745459 209.44021484 -130.9490918 209.88042969 -130.40771484 210.33398438 C-116.31086626 222.01386497 -101.03352111 232.00474893 -85.21533203 241.17724609 C-79.82684242 244.30509666 -74.53793151 247.53846741 -69.30834961 250.92529297 C-61.79320437 255.7886106 -54.56859313 260.21467568 -46 263 C-45.32614258 263.22268555 -44.65228516 263.44537109 -43.95800781 263.67480469 C-27.81662103 269.02290804 -27.81662103 269.02290804 -11.5 266.5 C2.53704823 252.46295177 4.55401324 226.08137207 8.05859375 207.4609375 C10.54638796 194.34648953 14.1430446 184.52079481 23.60180664 174.72241211 C27.41303031 170.7562344 30.75419003 166.56390575 34 162.125 C34.45656982 161.5064917 34.91313965 160.8879834 35.38354492 160.25073242 C37.97581736 156.66154412 40.27702265 153.10403634 42 149 C41.67 148.34 41.34 147.68 41 147 C36.90254586 150.50470446 32.8080835 154.01283883 28.71777344 157.52587891 C27.33707015 158.71074054 25.95406142 159.89291541 24.5703125 161.07421875 C22.69105278 162.69309911 20.8376727 164.33410975 19 166 C18.32453125 166.60972656 17.6490625 167.21945312 16.953125 167.84765625 C8.34836941 175.98335561 4.63091081 183.60457291 2.78125 195.2734375 C1.87354905 200.9964421 0.65728689 206.64917216 -0.5625 212.3125 C-0.87779663 213.82589966 -0.87779663 213.82589966 -1.19946289 215.36987305 C-1.4030542 216.31644775 -1.60664551 217.26302246 -1.81640625 218.23828125 C-1.99631104 219.08430908 -2.17621582 219.93033691 -2.36157227 220.80200195 C-3 223 -3 223 -5 226 C-10.62527345 214.74945311 -4.33018018 195.12062791 -1.08984375 183.828125 C1.12614398 177.65021981 4.73250748 172.92529483 9 168 C10.08087891 166.70255859 10.08087891 166.70255859 11.18359375 165.37890625 C16.72514114 158.96381444 22.69102267 153.86783195 29.4140625 148.7578125 C33.50268836 145.64656502 37.40243052 142.33328555 41.30249023 138.9909668 C44.770918 136.02357552 48.30198642 133.15433754 51.875 130.3125 C60.19339 123.52420802 65.67533667 117.73742343 66.8515625 106.78125 C66.98046875 105.60175781 67.109375 104.42226562 67.2421875 103.20703125 C67.36851562 101.98371094 67.49484375 100.76039063 67.625 99.5 C67.82609375 97.66501953 67.82609375 97.66501953 68.03125 95.79296875 C68.82405826 88.41316992 68.82405826 88.41316992 69 81 C68.37770508 80.82984375 67.75541016 80.6596875 67.11425781 80.484375 C38.58031116 72.61005284 10.77124869 62.04360253 -13.21044922 44.31152344 C-14.99680935 43.00233836 -16.80637795 41.7347995 -18.62890625 40.4765625 C-30.36570285 32.3422282 -40.9909165 23.34625871 -50.85546875 13.01953125 C-54.84254894 9.26484918 -57.2028986 12.32113003 -61 15 Z M-126 223 C-124.33479982 224.66813187 -122.66783749 226.33450498 -121 228 C-120.2884375 228.72058594 -119.576875 229.44117188 -118.84375 230.18359375 C-109.86346201 238.81963737 -99.48605838 245.3511639 -89 252 C-88.12504883 252.55574707 -87.25009766 253.11149414 -86.34863281 253.68408203 C-63.06766054 269.27306661 -63.06766054 269.27306661 -36.609375 274.59375 C-36.07828125 274.3978125 -35.5471875 274.201875 -35 274 C-35.83917969 273.76667969 -36.67835938 273.53335938 -37.54296875 273.29296875 C-56.34514351 267.58984393 -72.95810645 257.10070745 -89.43457031 246.62304688 C-91.97392368 245.01649746 -94.52716008 243.43476751 -97.0859375 241.859375 C-105.64293182 236.56707375 -113.80713578 231.10275369 -121.62890625 224.765625 C-123.77464095 222.80091731 -123.77464095 222.80091731 -126 223 Z " fill="#016630" transform="translate(295,140)"/>
<path d="M0 0 C0.75 1.625 0.75 1.625 1 4 C-1.5813952 8.61933877 -4.05043411 11.03629217 -8.625 13.625 C-9.77935853 14.29864259 -10.9315789 14.97595789 -12.08203125 15.65625 C-12.7054541 16.02363281 -13.32887695 16.39101563 -13.97119141 16.76953125 C-17.82584145 19.10736954 -21.56456949 21.62095125 -25.3125 24.125 C-26.05258301 24.61564941 -26.79266602 25.10629883 -27.55517578 25.61181641 C-36.72517238 31.30839664 -36.72517238 31.30839664 -44 39 C-45.18924058 46.13544346 -41.80180061 51.1376815 -38 57 C-36.18280621 59.52802911 -34.31077771 62.01337592 -32.4375 64.5 C-23.92940325 75.87727129 -18 89.52614562 -18 104 C-21 103 -21 103 -22.48046875 100.40234375 C-23.04378906 99.25894531 -23.60710937 98.11554688 -24.1875 96.9375 C-27.5606804 90.52537329 -31.84155501 85.79775662 -37.0625 80.8125 C-46.67887857 71.58698637 -54.68848387 61.83258643 -55.375 47.9375 C-54.53687486 39.13718598 -52.29775265 34.81256695 -45.58374023 29.05175781 C-41.42145892 25.74647461 -37.01553839 22.91962635 -32.5 20.125 C-31.54818848 19.5271167 -30.59637695 18.9292334 -29.61572266 18.31323242 C-22.90924973 14.12238765 -16.13565608 10.04887897 -9.27929688 6.10791016 C-6.0333746 4.23783484 -2.92882478 2.34157311 0 0 Z " fill="#016630" transform="translate(228,241)"/>
<path d="M0 0 C-3.26775642 3.87674264 -6.86226768 5.3739918 -11.5390625 6.98046875 C-12.26112885 7.23878983 -12.98319519 7.4971109 -13.72714233 7.76325989 C-16.02278844 8.58206051 -18.32356664 9.38512789 -20.625 10.1875 C-22.93222501 11.00406162 -25.23832055 11.82375028 -27.54428101 12.64387512 C-28.97672979 13.1519899 -30.41015515 13.65736161 -31.84463501 14.15971375 C-35.48453493 15.42886576 -35.48453493 15.42886576 -39 17 C-28.98556012 26.37453957 -17.94709587 34.43415345 -5.65991211 40.53881836 C-1.09015718 42.81968564 -1.09015718 42.81968564 0 45 C-7.82725782 47.60908594 -13.84855396 45.37545032 -21 42 C-23.96540668 40.27433472 -26.76032088 38.35231455 -29.5625 36.375 C-36.41032286 31.66362224 -43.37166886 27.30439194 -50.60571289 23.21044922 C-57.11768085 19.48864851 -57.11768085 19.48864851 -59 17 C-58.89379883 14.94116211 -58.89379883 14.94116211 -58 13 C-51.68988678 9.06458028 -45.01153753 7.55000664 -37.8125 5.9375 C-36.69915283 5.68145996 -35.58580566 5.42541992 -34.4387207 5.16162109 C-32.25582327 4.65985332 -30.07217296 4.16134684 -27.88769531 3.66650391 C-25.54725034 3.12630989 -23.22175496 2.55764888 -20.8984375 1.94921875 C-13.81927212 0.13206073 -7.30288491 -0.35527548 0 0 Z " fill="#016630" transform="translate(280,287)"/>
<path d="M0 0 C5.25820373 0.51775152 9.36484362 1.88243332 14.125 4.1875 C28.3539317 10.69325948 43.41326905 14.19602954 58.80517578 16.70776367 C63.10935518 17.41554609 67.02136164 18.11014678 71 20 C68.37812206 23.39301851 65.05828855 24.25722576 61 25 C56.97619955 25.30988855 52.97186863 25.33359553 48.9375 25.3125 C47.82221924 25.30686035 46.70693848 25.3012207 45.55786133 25.29541016 C31.14467445 25.08352865 17.05346804 22.71047537 5.9375 12.6875 C2.52871597 8.9794081 1.15170013 4.83714056 0 0 Z " fill="#016530" transform="translate(282,233)"/>
<path d="M0 0 C5.57566631 1.37706787 10.56152264 4.11800904 15.64404297 6.73095703 C17.31756836 7.55370117 17.31756836 7.55370117 19.02490234 8.39306641 C27.06158371 12.45613379 35.60359233 17.01403108 40.70654297 24.66845703 C40.16600243 29.20899757 40.16600243 29.20899757 38.70654297 30.66845703 C25.94728941 32.1406786 13.99520021 23.93518027 3.42871094 17.68603516 C1.97801252 16.82886036 0.51720168 15.98883344 -0.94580078 15.15283203 C-4.86954591 12.84388704 -7.99905786 10.65871645 -10.29345703 6.66845703 C-10.23095703 3.98095703 -10.23095703 3.98095703 -9.29345703 1.66845703 C-5.83396465 -0.63787122 -4.03835255 -0.56104109 0 0 Z " fill="#016630" transform="translate(301.29345703125,166.33154296875)"/>
<path d="M0 0 C8.05078871 0.56758807 16.088719 1.25695935 24.125 2 C25.51174927 2.1244751 25.51174927 2.1244751 26.92651367 2.25146484 C27.79896729 2.33348145 28.6714209 2.41549805 29.5703125 2.5 C30.74231201 2.60828125 30.74231201 2.60828125 31.93798828 2.71875 C34 3 34 3 37 4 C37.495 6.475 37.495 6.475 38 9 C34.27207583 12.14282397 32.03261572 12.56118612 27.2578125 12.42578125 C17.92565125 11.2061103 8.27647131 8.49407121 0 4 C0 2.68 0 1.36 0 0 Z " fill="#016630" transform="translate(247,381)"/>
<path d="M0 0 C6.52924027 0.16741642 10.28126683 3.94566446 15 8 C15.87785156 8.74378906 16.75570312 9.48757813 17.66015625 10.25390625 C26.45404172 17.90808344 26.45404172 17.90808344 29 23 C28.67 23.99 28.34 24.98 28 26 C18.08462712 24.86476166 10.29387202 17.38152272 4 10 C1.69182041 6.73333905 0 4.11063958 0 0 Z " fill="#016630" transform="translate(159,324)"/>
</svg>
