<?xml version="1.0" encoding="UTF-8"?>
<svg version="1.1" xmlns="http://www.w3.org/2000/svg" width="508" height="641">
<path d="M0 0 C0.97340332 0.1556543 1.94680664 0.31130859 2.94970703 0.47167969 C36.8698953 6.1372954 70.66164212 19.41414637 99 39 C99.59232422 39.40138184 100.18464844 39.80276367 100.79492188 40.21630859 C114.18416486 49.31421993 126.21868761 59.9321792 138 71 C138.65613281 71.61359375 139.31226563 72.2271875 139.98828125 72.859375 C145.14132975 77.83473217 149.53764748 83.40956477 154 89 C154.86499989 90.05151034 155.73090715 91.1022748 156.59765625 92.15234375 C184.24253933 125.99686921 200.97024108 167.11847061 208 210 C208.226875 211.299375 208.45375 212.59875 208.6875 213.9375 C220.79208088 295.97965929 180.94895925 373.51639108 136 439 C135.50306641 439.72461426 135.00613281 440.44922852 134.49414062 441.19580078 C126.74286028 452.42694866 118.32845832 463.19504628 110 474 C109.46665039 474.69222656 108.93330078 475.38445312 108.38378906 476.09765625 C102.63918597 483.53319567 96.71211399 490.78180118 90.609375 497.92578125 C88.23730965 500.70733088 85.92507288 503.53348661 83.625 506.375 C75.46419972 516.38986402 66.91396325 526.07406415 58.1875 535.59765625 C56.3033966 537.66680552 54.45545253 539.75853926 52.625 541.875 C48.09417961 547.08174698 43.38592424 552.12625838 38.68847656 557.18212891 C37.53583082 558.42310637 36.3841811 559.66500952 35.23339844 560.90771484 C22.60825804 574.54108924 22.60825804 574.54108924 16.16015625 580.77734375 C14.32601736 582.66454995 12.62117067 584.58952635 10.90966797 586.5859375 C6.88551073 591.19635143 2.61672079 595.52747916 -1.71484375 599.84765625 C-2.93670128 601.07094887 -2.93670128 601.07094887 -4.1832428 602.31895447 C-5.89559193 604.03198008 -7.60918842 605.74375965 -9.32397461 607.4543457 C-11.93002015 610.05503552 -14.53068522 612.66101956 -17.13085938 615.26757812 C-18.80436699 616.94042486 -20.47818482 618.61296134 -22.15234375 620.28515625 C-22.9202977 621.05513443 -23.68825165 621.82511261 -24.47947693 622.61842346 C-28.64707178 626.76820772 -32.89892925 630.75295964 -37.36573792 634.57981873 C-38.62138304 635.67098012 -39.82371817 636.82371817 -41 638 C-45.02486944 637.7864136 -47.00621575 635.32528573 -49.703125 632.5546875 C-50.60160156 631.64203125 -51.50007812 630.729375 -52.42578125 629.7890625 C-53.36764053 628.8181476 -54.30904436 627.84679068 -55.25 626.875 C-60.7963211 621.19606644 -66.30477719 615.5815621 -72.34228516 610.421875 C-74.33298473 608.71438835 -76.21232771 606.92080492 -78.0625 605.0625 C-78.94615234 604.18271484 -78.94615234 604.18271484 -79.84765625 603.28515625 C-81.59940997 601.42530883 -83.24836238 599.53446575 -84.90234375 597.58984375 C-90.42857406 591.23810013 -96.51672727 585.41588269 -102.5 579.5 C-116.66255222 565.49696164 -116.66255222 565.49696164 -121.6015625 559.6171875 C-123.15460087 557.82121575 -124.80494095 556.1618226 -126.5 554.5 C-129.46715801 551.57869212 -132.20058971 548.52008327 -134.91796875 545.3671875 C-137.560464 542.36277451 -140.27840173 539.43265928 -143 536.5 C-147.41511903 531.73377807 -151.76922398 526.93152568 -156 522 C-156.41685059 521.5148291 -156.83370117 521.0296582 -157.26318359 520.52978516 C-159.78943384 517.58907884 -162.31217446 514.64540512 -164.83203125 511.69921875 C-166.86571395 509.32213047 -168.9045022 506.94963379 -170.94921875 504.58203125 C-182.83406154 490.80714072 -194.35450663 476.78827089 -205.30078125 462.25390625 C-207.07999863 459.89388687 -208.86789397 457.54060004 -210.65625 455.1875 C-232.45346551 426.42535982 -252.27246231 396.49566184 -268.03662109 363.97558594 C-268.99521129 362.00982013 -269.97506216 360.05573471 -270.95703125 358.1015625 C-287.30034137 325.09187213 -297.0581075 287.85666303 -298 251 C-298.03996094 249.86046875 -298.07992188 248.7209375 -298.12109375 247.546875 C-299.19415238 190.23291995 -278.77058579 131.31549044 -241 88 C-240.06703966 86.88706577 -239.13618427 85.77236482 -238.20703125 84.65625 C-228.41563457 72.95656443 -218.06169037 62.39832219 -206 53 C-204.7445289 51.99251485 -203.489339 50.98467923 -202.234375 49.9765625 C-187.07745528 37.94433346 -170.57441671 28.08465364 -153 20 C-151.95271729 19.51370117 -151.95271729 19.51370117 -150.88427734 19.01757812 C-130.96669273 9.88441977 -109.67231019 3.29485726 -88 0 C-87.03674805 -0.14808105 -86.07349609 -0.29616211 -85.08105469 -0.44873047 C-56.96238341 -4.57807692 -28.05857156 -4.56884556 0 0 Z M-164.43066406 123.46582031 C-166.03720127 125.03636789 -167.66881802 126.57726345 -169.3046875 128.1171875 C-199.15379892 156.59558709 -217.95706195 199.08280788 -219.06201172 240.31396484 C-220.05444825 284.57991501 -206.40212163 323.89751563 -181 360 C-180.30849854 360.98685791 -180.30849854 360.98685791 -179.60302734 361.99365234 C-171.83841723 373.0367085 -163.65318445 383.6413635 -155 394 C-154.51257324 394.58652344 -154.02514648 395.17304688 -153.52294922 395.77734375 C-147.99689618 402.41990427 -142.34309172 408.91585397 -136.484375 415.26953125 C-134.49049487 417.46091837 -132.53189098 419.67271059 -130.5859375 421.90625 C-119.92610667 434.11564091 -108.507684 445.59568624 -97.0625 457.0625 C-96.42898621 457.69860199 -95.79547241 458.33470398 -95.14276123 458.99008179 C-86.1113845 468.06027286 -86.1113845 468.06027286 -76.59936523 476.61889648 C-74.27506983 478.6260006 -72.14135185 480.80077378 -70 483 C-66.49865743 486.53864759 -62.93446583 489.90309854 -59.1484375 493.1328125 C-55.48730868 496.31466628 -51.96310414 499.65081108 -48.41796875 502.9609375 C-46.09720151 505.17306698 -46.09720151 505.17306698 -43 506 C-35.47010843 501.21933143 -28.94073506 494.25974108 -22.47949219 488.13842773 C-18.72023112 484.57710286 -14.88420237 481.13074011 -10.97631836 477.73339844 C0.33795716 467.80982139 10.97657824 457.12579101 21.625 446.5 C22.18757507 445.94001312 22.75015015 445.38002625 23.32977295 444.80307007 C28.8937606 439.25929553 34.40618194 433.71214329 39.51025391 427.73486328 C41.8810252 424.97401425 44.38605979 422.34136494 46.875 419.6875 C51.28226211 414.94500684 55.49064391 410.09950345 59.54296875 405.046875 C61.39945546 402.74471342 63.27495624 400.46817659 65.17578125 398.203125 C82.2319269 377.83311751 97.40641071 356.40990676 110 333 C110.61617188 331.87464844 111.23234375 330.74929688 111.8671875 329.58984375 C133.14400855 289.16388375 136.80785515 241.01098162 123.78515625 197.44921875 C115.45362233 171.21544799 100.94416763 148.79744892 82 129 C81.113125 128.06027344 80.22625 127.12054688 79.3125 126.15234375 C48.32485962 94.12877934 3.43741099 76.46430089 -40.74462891 75.71655273 C-86.86937899 75.37668615 -131.17081414 90.7935261 -164.43066406 123.46582031 Z " fill="#016630" transform="translate(298,3)"/>
<path d="M0 0 C1.06950394 -0.00350464 2.13900787 -0.00700928 3.24092102 -0.01062012 C6.75247824 -0.01937402 10.2638316 -0.01361065 13.77539062 -0.00683594 C16.22961465 -0.00818441 18.68383841 -0.01012646 21.13806152 -0.01263428 C26.27224276 -0.01557696 31.40635424 -0.0113154 36.54052734 -0.00195312 C43.10739445 0.0094408 49.67409805 0.00287675 56.24095917 -0.00909805 C61.30598167 -0.01633973 66.37096569 -0.01401811 71.43598938 -0.00884247 C73.85679646 -0.00751236 76.27760709 -0.00913121 78.69841003 -0.01380157 C82.08679405 -0.01890472 85.4749166 -0.01110327 88.86328125 0 C89.85471634 -0.00404846 90.84615143 -0.00809692 91.86763 -0.01226807 C106.2879444 0.07486609 106.2879444 0.07486609 111.80664062 4.63378906 C112.50789062 5.50003906 113.20914063 6.36628906 113.93164062 7.25878906 C114.46205648 7.83727222 114.99247234 8.41575539 115.53896141 9.01176834 C117.42798684 12.05961973 117.32034934 14.26089639 117.33950806 17.83612061 C117.35076141 18.82508359 117.35076141 18.82508359 117.3622421 19.83402562 C117.3835629 22.04183994 117.38345864 24.24912166 117.38330078 26.45703125 C117.39391526 28.04068832 117.40574557 29.62433764 117.41870117 31.20797729 C117.44948875 35.50981577 117.46062393 39.81148789 117.4663434 44.11342525 C117.47069783 46.80239438 117.47907288 49.4913204 117.48884201 52.18027496 C117.52259384 61.56519272 117.53972377 70.94998469 117.54248047 80.33496094 C117.54551363 89.07614668 117.58593739 97.81662435 117.64362872 106.55760455 C117.69144116 114.06690499 117.71221257 121.57597201 117.71227109 129.08542371 C117.71280873 133.56838891 117.72435504 138.05066107 117.76344681 142.53347015 C117.79936756 146.75274054 117.80156007 150.97072124 117.77827454 155.19006729 C117.7754195 156.73479129 117.78442942 158.27959191 117.8064537 159.82416153 C117.98138106 172.90791647 117.98138106 172.90791647 113.9414978 178.05352783 C106.90764889 184.54405996 98.6889818 184.69936769 89.55615234 184.63110352 C88.45417511 184.63475418 87.35219788 184.63840485 86.21682739 184.64216614 C82.59816766 184.65022874 78.97996172 184.63669852 75.36132812 184.62207031 C72.83505249 184.62155127 70.30877645 184.62207069 67.78250122 184.62358093 C62.49866737 184.62349141 57.2149495 184.61344244 51.93115234 184.5949707 C45.83657933 184.57378555 39.74219482 184.5702996 33.64759243 184.57653266 C27.76306877 184.58224092 21.87860149 184.57645858 15.9940834 184.56535912 C13.49905793 184.56151554 11.0040268 184.5603554 8.50899887 184.56194496 C5.02200338 184.56231649 1.53529251 184.54967123 -1.95166016 184.53344727 C-2.97833801 184.53592468 -4.00501587 184.5384021 -5.06280518 184.54095459 C-12.88044043 184.48300866 -19.17821384 183.97044534 -25.06835938 178.25878906 C-25.06835938 177.59878906 -25.06835938 176.93878906 -25.06835938 176.25878906 C-25.72835937 176.25878906 -26.38835937 176.25878906 -27.06835938 176.25878906 C-28.19155213 172.88921081 -28.19987614 170.34096273 -28.20880127 166.78825378 C-28.21177239 166.12838842 -28.21474351 165.46852306 -28.21780467 164.78866178 C-28.22648987 162.57320639 -28.22799976 160.35780505 -28.22949219 158.14233398 C-28.23412049 156.55558659 -28.23914517 154.96884032 -28.24453735 153.38209534 C-28.25766223 149.06795854 -28.26410649 144.75383732 -28.26854801 140.43968368 C-28.27147862 137.74455477 -28.2755834 135.04943012 -28.28005219 132.35430336 C-28.29372739 123.92238452 -28.30339392 115.49047541 -28.30725408 107.05854625 C-28.31173493 97.32417792 -28.329284 87.58995001 -28.35825467 77.85562438 C-28.37986906 70.33196258 -28.38995823 62.80834028 -28.39129519 55.28464776 C-28.3923434 50.79078133 -28.39825457 46.29704688 -28.41611481 41.80321312 C-28.43259129 37.57526817 -28.43475309 33.34755447 -28.4259758 29.11958885 C-28.42520519 27.56920757 -28.42955127 26.01881387 -28.43943405 24.4684639 C-28.45215182 22.34879282 -28.4462785 20.22994102 -28.43585205 18.11027527 C-28.43731861 16.92505877 -28.43878517 15.73984228 -28.44029617 14.51871014 C-27.9168397 9.9307619 -26.54295288 6.47316018 -22.94335938 3.50878906 C-15.51106612 0.27735721 -8.00430494 -0.03268507 0 0 Z M-2.06835938 26.25878906 C-3.97815284 29.35835002 -4.32217536 31.72597763 -4.33578491 35.3377533 C-4.34431488 36.36255295 -4.35284485 37.3873526 -4.3616333 38.44320679 C-4.36072693 39.56176056 -4.35982056 40.68031433 -4.35888672 41.83276367 C-4.36560394 43.01525192 -4.37232117 44.19774017 -4.37924194 45.4160614 C-4.39498319 48.65576643 -4.40159682 51.89531757 -4.40287352 55.13505626 C-4.40429607 57.15998541 -4.40856759 59.18488777 -4.41386795 61.20981026 C-4.43236364 68.27652821 -4.440539 75.34317076 -4.43896484 82.40991211 C-4.43776301 88.99358444 -4.45887438 95.57692917 -4.49045217 102.16051859 C-4.51661342 107.81669719 -4.52733224 113.47276876 -4.52605402 119.1290074 C-4.52554441 122.50562124 -4.53122691 125.88194376 -4.55241013 129.25849724 C-4.57196451 133.02441633 -4.56627285 136.78948772 -4.55419922 140.55541992 C-4.56543823 141.67194946 -4.57667725 142.788479 -4.58825684 143.93884277 C-4.56063154 149.98558682 -4.56063154 149.98558682 -2.17446899 155.43946838 C1.25229302 158.39960823 4.52015731 158.53450677 8.93164062 158.25878906 C11.9213262 157.05019277 13.35344797 156.19327133 15.04425335 153.46057034 C16.07877294 150.89372504 16.18590296 148.98250141 16.19233704 146.2177887 C16.20296425 144.69321045 16.20296425 144.69321045 16.21380615 143.13783264 C16.21132874 142.02862961 16.20885132 140.91942657 16.20629883 139.77661133 C16.21140976 138.60387665 16.21652069 137.43114197 16.2217865 136.22286987 C16.23330347 133.0100153 16.23575629 129.79732075 16.2332232 126.58445096 C16.23215282 123.90055742 16.23703857 121.21668763 16.24182862 118.53279918 C16.25292041 112.20015206 16.25336308 105.86756425 16.24731445 99.53491211 C16.24127402 93.00582412 16.25358802 86.47695159 16.27488452 79.94790035 C16.29250754 74.3384322 16.29850079 68.72903259 16.29524678 63.11953777 C16.29343488 59.77092723 16.29606059 56.4224704 16.30996132 53.07388496 C16.32227569 49.33920744 16.31556357 45.60503063 16.30395508 41.87036133 C16.31159882 40.76318253 16.31924255 39.65600372 16.32711792 38.51527405 C16.41386066 31.33199634 16.41386066 31.33199634 12.93164062 25.25878906 C8.15584788 23.66685815 2.13986612 23.02169253 -2.06835938 26.25878906 Z M34.93164062 28.25878906 C34.33804973 30.7493961 34.33804973 30.7493961 34.43043518 33.50306702 C34.42060104 34.5644136 34.41076691 35.62576019 34.40063477 36.7192688 C34.41030273 37.87836761 34.4199707 39.03746643 34.42993164 40.23168945 C34.42452866 41.45640457 34.41912567 42.68111969 34.41355896 43.94294739 C34.4031946 47.29853434 34.41077303 50.65313533 34.42727017 54.00863576 C34.44112375 57.519957 34.43466037 61.03124857 34.43113708 64.54258728 C34.42843555 70.43806215 34.44190675 76.33333335 34.46508789 82.22875977 C34.49170978 89.04646842 34.49344071 95.86383682 34.48169953 102.68157965 C34.47092472 109.23942361 34.47710562 115.79714439 34.49125481 122.35497856 C34.497016 125.14640652 34.49693095 127.93774437 34.49218941 130.72917366 C34.48653606 134.62467477 34.50572669 138.51983459 34.52758789 142.4152832 C34.52308624 143.57640625 34.51858459 144.7375293 34.51394653 145.93383789 C34.52385117 146.99236465 34.5337558 148.05089142 34.54396057 149.14149475 C34.54639047 150.06270143 34.54882036 150.9839081 34.55132389 151.93303013 C35.00476601 154.70597425 35.7179204 155.58204184 37.93164062 157.25878906 C41.97160312 158.38604451 45.81370697 158.54421893 49.86914062 157.50878906 C52.22258672 156.28177425 52.22258672 156.28177425 53.93164062 153.25878906 C54.24127455 150.89721791 54.24127455 150.89721791 54.20579529 148.22415161 C54.21577042 147.18389832 54.22574554 146.14364502 54.23602295 145.0718689 C54.23701996 143.36059311 54.23701996 143.36059311 54.23803711 141.61474609 C54.24636063 140.41289673 54.25468414 139.21104736 54.26325989 137.97277832 C54.28324848 134.67513354 54.29400441 131.37774144 54.29908633 128.08005762 C54.30272933 126.01945425 54.30896909 123.9588752 54.31608772 121.8982811 C54.34058421 114.70838097 54.3536345 107.51855301 54.35717773 100.32861328 C54.36081307 93.62845166 54.39070713 86.92874811 54.43258232 80.22872651 C54.46728198 74.47490403 54.48272611 68.72123338 54.48342377 62.96730697 C54.48421673 59.53135907 54.49296261 56.09587772 54.52142143 52.66003799 C54.55245972 48.82705218 54.54354396 44.99472419 54.53100586 41.16162109 C54.54584015 40.02481903 54.56067444 38.88801697 54.57595825 37.71676636 C54.55746261 31.43670258 54.55746261 31.43670258 51.55262756 26.0541687 C48.6921137 24.09471279 47.30073867 23.60612343 43.86914062 23.69628906 C43.03253906 23.695 42.1959375 23.69371094 41.33398438 23.69238281 C38.12744543 24.44839606 37.00786627 25.72874195 34.93164062 28.25878906 Z M72.93164062 28.25878906 C71.95404529 31.19157507 71.80157725 33.0864091 71.79119873 36.14157104 C71.78548859 37.14816772 71.77977844 38.1547644 71.77389526 39.19186401 C71.7727774 40.29531158 71.77165955 41.39875916 71.77050781 42.53564453 C71.76554291 43.69847961 71.760578 44.8613147 71.75546265 46.05938721 C71.74083009 49.91492296 71.73403754 53.77041758 71.72851562 57.62597656 C71.72421825 59.62453693 71.71992036 61.6230973 71.71554112 63.62165749 C71.7037311 69.19033616 71.69619303 74.75900485 71.69274592 80.32769477 C71.68826474 87.52704181 71.67071258 94.72619903 71.64174533 101.92548835 C71.62012417 107.49246384 71.61004143 113.05938594 71.60870481 118.62640297 C71.60765716 121.95046132 71.60031176 125.27430049 71.58388519 128.59832382 C71.56686573 132.30674448 71.56869511 136.01470086 71.57519531 139.72314453 C71.56598053 140.82254364 71.55676575 141.92194275 71.54727173 143.05465698 C71.50075822 150.17588728 71.50075822 150.17588728 74.93164062 156.25878906 C78.35340752 158.82511423 81.77804484 158.62313957 85.93164062 158.25878906 C88.80555884 157.08603912 88.80555884 157.08603912 90.93164062 155.25878906 C91.91785125 152.3001572 92.06638131 150.34900568 92.08554077 147.26211548 C92.09414124 146.23027634 92.1027417 145.19843719 92.11160278 144.1353302 C92.11586273 143.00383041 92.12012268 141.87233063 92.12451172 140.70654297 C92.13268921 139.51444717 92.1408667 138.32235138 92.14929199 137.09413147 C92.17414699 133.14121843 92.190813 129.18831288 92.20507812 125.23535156 C92.21043894 123.87372201 92.21581645 122.51209252 92.22121048 121.1504631 C92.24283103 115.4869281 92.26156826 109.8233959 92.27283287 104.15983009 C92.28907791 96.04618959 92.32227769 87.93302748 92.37923372 79.81956732 C92.41793083 74.11246948 92.43746508 68.40549962 92.44275343 62.69827402 C92.44640655 59.29024577 92.4584225 55.88272822 92.49085617 52.47484207 C92.52235503 48.67279613 92.52256681 44.87196553 92.51513672 41.06982422 C92.53154205 39.94237289 92.54794739 38.81492157 92.56484985 37.65330505 C92.55427142 31.40396992 92.55427142 31.40396992 89.53775024 26.05990601 C86.08441942 23.67326325 84.15498651 23.5986328 80.08789062 23.82910156 C76.86717843 24.47091015 75.11996906 25.86530483 72.93164062 28.25878906 Z " fill="#016630" transform="translate(208.068359375,208.7412109375)"/>
<path d="M0 0 C0.68648337 -0.00155999 1.37296675 -0.00311998 2.08025265 -0.00472724 C4.38563609 -0.00872293 6.69095393 -0.00555312 8.99633789 -0.00241089 C10.6470646 -0.00376556 12.29779101 -0.00554587 13.94851685 -0.00772095 C18.43600833 -0.0122874 22.92347688 -0.01050894 27.41096878 -0.00734186 C32.10210483 -0.00481421 36.79323888 -0.00715693 41.484375 -0.00872803 C49.36304071 -0.01054853 57.24169704 -0.00814652 65.12036133 -0.00338745 C74.23566533 0.00205494 83.35094696 0.0002922 92.46625042 -0.00521386 C100.2854033 -0.00974836 108.10454943 -0.01039387 115.92370319 -0.00777519 C120.5968341 -0.00621428 125.26995448 -0.00601358 129.94308472 -0.00931168 C134.33593673 -0.01219527 138.72875985 -0.01020565 143.12160873 -0.00441742 C144.73613309 -0.00309246 146.35065986 -0.00347949 147.96518326 -0.00568008 C150.16448471 -0.00840189 152.36369282 -0.00499776 154.56298828 0 C155.79521622 0.00037703 157.02744415 0.00075405 158.29701233 0.0011425 C161.28149414 0.12698364 161.28149414 0.12698364 164.28149414 1.12698364 C164.28149414 1.78698364 164.28149414 2.44698364 164.28149414 3.12698364 C165.27149414 3.45698364 166.26149414 3.78698364 167.28149414 4.12698364 C170.1321917 8.45811449 169.61194796 13.06255034 169.59399414 18.06448364 C169.61010742 18.95844849 169.6262207 19.85241333 169.64282227 20.77346802 C169.64646731 25.68334339 169.56572737 29.19667175 166.28149414 33.12698364 C162.59448814 35.58498764 160.78107591 35.38277377 156.37989807 35.39440918 C155.6737025 35.39894029 154.96750693 35.40347141 154.2399115 35.40813982 C151.86772 35.42082516 149.49575687 35.41916083 147.12353516 35.41751099 C145.42516788 35.42349362 143.72680333 35.43029855 142.02844238 35.43786621 C137.41071564 35.45555931 132.79306297 35.46022295 128.1753056 35.46149778 C124.32326532 35.46339502 120.47124237 35.47075044 116.61920875 35.47784197 C107.53323964 35.49413571 98.44731017 35.49900999 89.36132812 35.49758911 C79.98125029 35.49638705 70.60140232 35.5174995 61.22138268 35.54907644 C53.17375686 35.57520494 45.12620628 35.58595787 37.07853836 35.58467829 C32.26948118 35.5841677 27.46062826 35.58990467 22.65161324 35.61103439 C18.12977816 35.63035949 13.60834341 35.63058076 9.08649445 35.61600113 C7.42561956 35.61390486 5.76471999 35.61866242 4.10388756 35.63072205 C1.83880855 35.64610581 -0.42487821 35.63691379 -2.68992615 35.62145996 C-4.59219294 35.62309426 -4.59219294 35.62309426 -6.53288937 35.62476158 C-10.30096799 35.0359693 -11.45267132 34.13736222 -13.71850586 31.12698364 C-15.14578173 26.84515602 -14.94298355 22.73752928 -14.96850586 18.25198364 C-14.98913086 17.35350708 -15.00975586 16.45503052 -15.03100586 15.52932739 C-15.05989959 10.6390631 -15.07139694 7.01698834 -11.71850586 3.12698364 C-11.05850586 3.12698364 -10.39850586 3.12698364 -9.71850586 3.12698364 C-9.71850586 2.46698364 -9.71850586 1.80698364 -9.71850586 1.12698364 C-6.27694825 -0.02020223 -3.63139932 0.0011111 0 0 Z " fill="#016630" transform="translate(175.718505859375,164.87301635742188)"/>
<path d="M0 0 C14.85 0 29.7 0 45 0 C45 0.66 45 1.32 45 2 C45.639375 2.12375 46.27875 2.2475 46.9375 2.375 C47.9584375 2.684375 47.9584375 2.684375 49 3 C50.62841701 6.25683403 50.26795577 9.79958335 50.3125 13.375 C50.34150391 14.14328125 50.37050781 14.9115625 50.40039062 15.703125 C50.40876953 16.44820312 50.41714844 17.19328125 50.42578125 17.9609375 C50.44036377 18.63946777 50.45494629 19.31799805 50.4699707 20.01708984 C49.71469368 23.20377034 48.73668545 24.15651713 46 26 C42.47647974 26.56877789 38.99495698 26.48825815 35.43359375 26.42578125 C34.40315445 26.42249313 33.37271515 26.41920502 32.31105042 26.41581726 C30.13479285 26.40540129 27.95856301 26.38545971 25.7824707 26.35668945 C22.44662259 26.31262052 19.11149379 26.29525392 15.77539062 26.28320312 C13.66144793 26.26977869 11.5475141 26.25485562 9.43359375 26.23828125 C8.4335582 26.23089432 7.43352264 26.22350739 6.40318298 26.21589661 C5.475345 26.20306137 4.54750702 26.19022614 3.59155273 26.17700195 C2.77532944 26.16715775 1.95910614 26.15731354 1.1181488 26.14717102 C-1 26 -1 26 -4 25 C-6.72395571 21.39822468 -6.26070883 17.18276155 -6.1875 12.875 C-6.18685547 12.14667969 -6.18621094 11.41835937 -6.18554688 10.66796875 C-6.14074248 5.28148496 -6.14074248 5.28148496 -5 3 C-2.4375 2.375 -2.4375 2.375 0 2 C0 1.34 0 0.68 0 0 Z " fill="#016630" transform="translate(230,131)"/>
</svg>
